<svg xmlns="http://www.w3.org/2000/svg" viewBox="0 0 24 24"><path d="M 2.6699219 1.1503906 L 1.2558594 2.5664062 L 2.9785156 4.2890625 C 2.3951815 4.6390116 2 5.2722833 2 6 L 2 18 C 2 19.103 2.897 20 4 20 L 18.689453 20 L 20.78125 22.091797 L 22.195312 20.677734 L 21.150391 19.630859 L 21.148438 19.630859 L 19.519531 18 L 2.6699219 1.1503906 z M 8.3476562 4 L 10.347656 6 L 20 6 L 19.998047 15.650391 L 22 17.652344 L 22 6 C 22 4.897 21.103 4 20 4 L 8.3476562 4 z M 4 6 L 4.6894531 6 L 12.255859 13.566406 L 11 15 L 8.5 12.5 L 5.7773438 16 L 14.689453 16 L 16.689453 18 L 4 18 L 4 6 z M 17 8 A 1 1 0 0 0 17 10 A 1 1 0 0 0 17 8 z"/></svg>