<?xml version="1.0" encoding="utf-8"?><svg version="1.1" id="Layer_1" xmlns="http://www.w3.org/2000/svg" xmlns:xlink="http://www.w3.org/1999/xlink" x="0px" y="0px" viewBox="0 0 2639.18 1603.24" style="enable-background:new 0 0 2639.18 1603.24;" xml:space="preserve"><style type="text/css">.st0{fill:#FEEFDC;}.st1{fill:#3F9896;}.st2{fill:#7FC6A6;}.st3{fill:#FE9F73;}.st4{fill:#F07162;}.st5{fill:#D7E4F7;}.st6{fill:#FD7583;}.st7{fill:#4CB7D8;}.st8{fill:#21111D;}.st9{fill:#FBFDFC;}.st10{fill:#FEBAC7;}.st11{opacity:0.5;}.st12{fill:#ED2B47;}.st13{opacity:0.5;fill:#F07162;}.st14{fill:#D61339;}.st15{fill:#DCF4FF;}.st16{fill:#3AA1C9;}.st17{fill:#472A31;}.st18{fill:#49263E;}.st19{fill:#683D46;}.st20{fill:#FEC786;}.st21{fill:#F99247;}.st22{fill:#E84242;}.st23{fill:#EA5942;}.st24{fill:#995A47;}.st25{fill:#8C3535;}.st26{fill:#F75553;}.st27{fill:#FFFFFF;}</style><g><g><g><g><path class="st0" d="M627.35,1593.28l-465.61,2.82c0,0-181.78-211.84-159.91-673.46C20.31,532.37,271.84,116.19,722.1,56.54c418.18-55.4,617.75,250.64,1080.85,285.8c216.5,16.44,429.34,6.73,686.7,200.93c127.58,96.27,306.08,553.29-110.88,1050.01H627.35z"/></g></g></g></g><g><g><g><g><path class="st1" d="M1047.14,755.94c0,0-76.4-126.32-259.7-93.56C787.44,662.38,910.84,845.38,1047.14,755.94z"/></g></g></g><g><g><g><path class="st2" d="M1166.45,789.29c0,0-22.76-253.21-331.15-341.05C835.31,448.24,887.95,824.67,1166.45,789.29z"/></g></g></g></g><g><g><path class="st3" d="M2142.97,978.96c5.74-0.25,10.43-2.66,12.16-2.86l-7.19-9.2c-1.75-1.4-2.03-3.96-0.62-5.71c1.4-1.75,3.96-2.03,5.71-0.62l22.17,13.9c1.14,0.92,1.47,3.83,1.17,6.23c4.42,23.57,4.9,27.23,5.51,33.7l-23.6,0.22c-3.26,0.25-12.43,0.26-14.18-0.85c-3.02-1.91-1.99-5.12-2.21-8.83c-0.3-5.21-1.07-11.39-1.56-16.27c0.16-0.2,0.24-0.45,0.21-0.72l-0.11-1.05c-0.02-0.18-0.1-0.34-0.2-0.47c0,0,0,0,0,0h0c0,0,0,0,0,0L2142.97,978.96z"/></g></g><g><g><g><g><path class="st4" d="M2320.67,964.28c-0.28-0.03-0.55-0.13-0.79-0.3l-20.93-15.1c-0.73-0.53-0.89-1.54-0.37-2.27c0.53-0.73,1.55-0.89,2.27-0.37l20.93,15.1c0.73,0.53,0.89,1.54,0.37,2.27C2321.8,964.1,2321.23,964.33,2320.67,964.28z"/></g></g></g></g><g><g><path class="st3" d="M2166.99,969.31c0,0,10.65,4.71,13.6,4.53c2.95-0.18,15.08-2.65,15.08-2.65l5.92,42.99c0,0-9.04,1.07-24.68,0.25C2161.26,1013.6,2166.99,969.31,2166.99,969.31z"/></g></g><g><g><g><path class="st3" d="M2127.87,989.37c0.11,2.75,2.04,4.79,2.67,4.77l20.86-0.76c2.34-0.09,4.33-1.93,4.39-4.27c0.07-2.57-2.03-4.63-4.56-4.53l-21.39,0.78C2129.83,985.35,2127.76,986.63,2127.87,989.37z"/></g></g><g><g><path class="st3" d="M2128.25,998.05c0.05,2.75,1.95,4.83,2.57,4.82l20.87-0.36c2.35-0.04,4.36-1.85,4.47-4.19c0.12-2.57-1.95-4.66-4.47-4.62l-21.41,0.37C2130.29,994.07,2128.19,995.31,2128.25,998.05z"/></g></g><g><g><path class="st3" d="M2130.53,1005.69c0.02,2.24,1.55,3.96,2.06,3.96l17.05-0.09c1.92-0.01,3.58-1.47,3.69-3.38c0.12-2.1-1.54-3.83-3.61-3.82l-17.48,0.09C2132.24,1002.46,2130.52,1003.45,2130.53,1005.69z"/></g></g><g><g><g><path class="st4" d="M2130.4,994.88c-0.38-0.07-0.67-0.39-0.68-0.79c-0.02-0.46,0.34-0.84,0.8-0.86l20.85-0.68c1.96-0.07,3.54-1.59,3.59-3.47c0.03-1-0.35-1.94-1.06-2.65c-0.71-0.7-1.65-1.07-2.65-1.04l-19.07,0.69c-0.46,0.01-0.84-0.34-0.86-0.8c-0.02-0.46,0.34-0.84,0.8-0.86l19.07-0.69c1.44-0.05,2.85,0.5,3.88,1.52c1.04,1.03,1.59,2.4,1.54,3.87c-0.08,2.74-2.36,4.97-5.19,5.08l-20.85,0.68C2130.51,994.9,2130.45,994.89,2130.4,994.88z"/></g></g></g><g><g><path class="st3" d="M2129.8,981.03c0.1,2.44,1.81,4.26,2.37,4.24l18.53-0.67c2.08-0.08,3.84-1.71,3.9-3.8c0.06-2.28-1.81-4.11-4.05-4.03l-19.01,0.69C2131.54,977.46,2129.7,978.59,2129.8,981.03z"/></g></g><g><g><g><path class="st4" d="M2132.05,985.92c-0.33-0.06-0.59-0.35-0.6-0.7c-0.01-0.41,0.31-0.75,0.71-0.76l18.52-0.61c1.74-0.06,3.15-1.42,3.19-3.08c0.02-0.89-0.31-1.73-0.94-2.35s-1.46-0.95-2.35-0.92l-16.95,0.62c-0.4,0.01-0.75-0.3-0.76-0.71c-0.02-0.41,0.3-0.75,0.71-0.76l16.95-0.62c1.28-0.05,2.53,0.44,3.44,1.35c0.92,0.91,1.41,2.14,1.37,3.44c-0.07,2.44-2.09,4.42-4.61,4.51l-18.52,0.61C2132.15,985.94,2132.1,985.93,2132.05,985.92z"/></g></g></g><g><g><g><path class="st4" d="M2131.34,1003.22c-0.39-0.07-0.68-0.41-0.68-0.81c0-0.46,0.37-0.83,0.83-0.83l20.35-0.07c1.97-0.03,3.42-1.36,3.51-3.22c0.05-1-0.31-1.95-1-2.67c-0.7-0.72-1.63-1.1-2.63-1.09l-21.41,0.37c-0.46,0.01-0.84-0.36-0.84-0.81c-0.01-0.46,0.36-0.83,0.81-0.84l21.41-0.37c1.44-0.03,2.84,0.55,3.85,1.59c1.02,1.05,1.54,2.43,1.47,3.9c-0.13,2.73-2.3,4.75-5.15,4.8l-20.36,0.07C2131.44,1003.23,2131.39,1003.23,2131.34,1003.22z"/></g></g></g><g><g><g><path class="st4" d="M2132.46,1010.36c-0.34-0.06-0.59-0.36-0.59-0.71c0-0.4,0.32-0.73,0.72-0.73l17.05-0.09c1.58-0.01,2.88-1.19,2.97-2.69c0.05-0.81-0.23-1.57-0.78-2.15c-0.55-0.58-1.3-0.9-2.1-0.9l-17.48,0.09c-0.4,0-0.73-0.32-0.73-0.72c0-0.4,0.32-0.73,0.72-0.73l17.48-0.09c1.19-0.01,2.34,0.49,3.16,1.35c0.83,0.88,1.25,2.03,1.18,3.24c-0.13,2.26-2.07,4.05-4.42,4.06l-17.05,0.09C2132.55,1010.38,2132.5,1010.37,2132.46,1010.36z"/></g></g></g></g><g><g><g><g><g><g><g><g><polygon class="st5" points="2282.48,1578.67 2223.08,1578.95 2222.57,1527.62 2281.78,1521.31 "/></g></g></g></g></g></g><g><g><g><g><g><g><path class="st6" d="M2239.13,1596.63l76.57,0.99c0.69-0.09,1.26-0.19,1.68-0.31c7.24-2.06,4.94-6.56,4.94-6.56l-36.39-22.69l-0.66-3.25c-1.05-5.22-7.62-7.15-12.6-3.7l-12.95,8.98c0,0-32.56,4.36-36.93-4.74l-0.03,23.47C2222.77,1588.82,2220.19,1596.27,2239.13,1596.63z"/></g></g></g></g></g></g></g><g><g><g><g><path class="st7" d="M2151.73,1119.45c0,0,25.56,94.6,41.27,205.65c11.11,78.54,23.92,234.26,23.92,229.8c0,0,34.82,3.16,72.82-14.81v-223.31l-23.02-269.42L2151.73,1119.45z"/></g></g></g></g><g><g><g><g><path class="st8" d="M2216.92,1554.9L2216.92,1554.9L2216.92,1554.9z"/></g></g></g></g><g><g><g><g><g><g><g><polygon class="st5" points="2075.75,1578.67 2135.15,1578.95 2135.67,1527.62 2076.46,1521.31 "/></g></g></g></g></g></g><g><g><g><g><g><g><path class="st6" d="M2119.1,1596.63l-76.57,0.99c-0.69-0.09-1.26-0.19-1.68-0.31c-7.24-2.06-4.94-6.56-4.94-6.56l36.39-22.69l0.66-3.25c1.05-5.22,7.62-7.15,12.6-3.7l12.95,8.98c0,0,32.56,4.36,36.93-4.74l0.03,23.47C2135.46,1588.82,2138.04,1596.27,2119.1,1596.63z"/></g></g></g></g></g></g></g><g><g><g><g><path class="st7" d="M2206.92,1119.45c0,0-25.56,94.6-41.27,205.65c-11.11,78.54-23.92,234.26-23.92,229.8c0,0-34.82,3.16-72.82-14.81v-223.31l23.02-269.42L2206.92,1119.45z"/></g></g></g></g><g><g><g><g><path class="st8" d="M2141.72,1554.9L2141.72,1554.9L2141.72,1554.9z"/></g></g></g></g><g><g><g><g><g><path class="st3" d="M2081.69,908.83c0,0-52.89,38.64-68.7,43.55c-15.81,4.91-145.51-49.21-145.51-49.21l15.84-40.38l112.6,26.88l51.33-37.04L2081.69,908.83z"/></g></g></g></g><g><g><g><g><g><path class="st3" d="M1820.82,886.54c0.19-2.21,2.16-3.84,4.38-3.79l13.79,0.29c0.43,0.01,0.82-0.26,0.97-0.66l0,0c0.22-0.6-0.16-1.25-0.79-1.35l-20.12-3.13c-2.31-0.36-3.54-2.44-2.74-4.64l0,0c0.8-2.19,3.34-3.69,5.65-3.33l20.52,3.19c0.48,0.07,0.94-0.2,1.1-0.65l0.12-0.32c0.19-0.52-0.08-1.1-0.6-1.3l-21.64-7.91c-2.08-0.76-3.32-3-2.7-5.12c0.68-2.33,3.18-3.56,5.42-2.74l21.77,7.95c0.52,0.19,1.1-0.08,1.3-0.6l0.37-1.02c0.17-0.48-0.03-1.01-0.48-1.24l-19.09-9.96c-1.96-1.02-2.91-3.4-2.01-5.43c0.98-2.22,3.61-3.12,5.73-2.02c0,0,29.93,13.62,34.78,15.37l-2.95-11.66c-0.97-2.08-0.06-4.56,2.02-5.53h0c2.08-0.97,4.56-0.06,5.53,2.02l14.04,22.82c0.63,1.36-0.39,4.18-1.75,6.25c-6.65,23.64-7.86,27.22-10.24,33.43l-24.33-9.83c-7.02-2.84-14.5-4.37-22.07-4.53l-1.9-0.04C1822.48,891.01,1820.61,888.96,1820.82,886.54z"/></g></g></g></g></g><g><g><g><g><path class="st6" d="M2280.56,809.49l-79.28-19.5c-30.02-7.38-59.73-6.07-89.25,3.11c-10.67,3.32-110.29,88.18-110.29,88.18s42.23,42.02,59.78,44.82l43.34-26.86c0,0-31.38,148.65-31.38,213.7c0,0,107.95,40.28,214.03,2.78c0,0-0.22-145.78-1-156.24l6.34,15.01c0,0,54.38-19.52,68.29-41.27c0,0-44.24-91.47-49.96-100.18C2303.39,821.2,2288.65,811.24,2280.56,809.49z"/></g></g></g></g><g><g><g><g><path class="st4" d="M2362.77,992.67c0.28-0.07,0.54-0.22,0.75-0.43l18.71-18.67c0.65-0.65,0.65-1.71,0-2.36c-0.65-0.65-1.71-0.65-2.36,0l-18.71,18.67c-0.65,0.65-0.65,1.71,0,2.36C2361.59,992.68,2362.21,992.82,2362.77,992.67z"/></g></g></g></g><g><g><g><g><path d="M2293.1,975.46c0.04-0.01,0.07-0.02,0.11-0.03c62.2-24.08,68.63-41.16,68.87-41.88l0.13-0.39l-0.18-0.37l-47.61-96.08c-0.11-0.21-10.22-19.35-31.78-27.69c-0.52-0.2-1.1,0.06-1.29,0.57c-0.2,0.52,0.06,1.1,0.57,1.3c20.83,8.06,30.62,26.54,30.72,26.73l47.39,95.64c-1.28,2.51-11.39,18.57-67.54,40.31c-0.52,0.2-0.77,0.78-0.57,1.3C2292.1,975.34,2292.61,975.59,2293.1,975.46z"/></g></g></g></g><g><g><g><g><path d="M2293.1,975.46c0.04-0.01,0.09-0.03,0.13-0.04c0.51-0.21,0.75-0.8,0.54-1.31l-6.71-16.15c-0.21-0.51-0.79-0.76-1.31-0.54c-0.51,0.21-0.75,0.8-0.54,1.31l6.71,16.15C2292.11,975.35,2292.62,975.59,2293.1,975.46z"/></g></g></g></g><g><g><g><g><path d="M2061.61,927.22l70.29-43.57c0.47-0.29,0.61-0.91,0.32-1.38c-0.29-0.47-0.91-0.62-1.38-0.32l-69.42,43.03c-3.63-1.58-28.37-13.03-58.98-44.4c-0.39-0.4-1.02-0.4-1.42-0.02c-0.4,0.39-0.4,1.02-0.02,1.42c33.33,34.16,59.86,44.95,60.13,45.06L2061.61,927.22z"/></g></g></g></g><g><g><g><g><path d="M2090.41,974.05c0.37-0.1,0.67-0.4,0.73-0.81c0.09-0.57,9.41-57.56,14.95-73.85c0.18-0.52-0.1-1.09-0.63-1.27c-0.52-0.18-1.09,0.1-1.27,0.63c-5.6,16.45-14.65,71.83-15.03,74.18c-0.09,0.55,0.28,1.06,0.83,1.15C2090.13,974.09,2090.28,974.08,2090.41,974.05z"/></g></g></g></g><g><g><g><g><g><path d="M2257.69,823.49c0.15-0.04,0.29-0.11,0.41-0.22c0.41-0.37,0.45-1,0.08-1.41l-7.67-8.53c-0.37-0.41-1-0.44-1.41-0.08c-0.41,0.37-0.44,1-0.08,1.41l7.67,8.53C2256.95,823.48,2257.34,823.59,2257.69,823.49z"/></g></g></g></g><g><g><g><g><path d="M2263.36,824.85c0.14-0.04,0.27-0.1,0.38-0.2c0.43-0.35,0.49-0.98,0.14-1.41l-7.58-9.2c-0.35-0.43-0.98-0.49-1.41-0.14c-0.43,0.35-0.49,0.98-0.14,1.41l7.58,9.2C2262.59,824.83,2263,824.95,2263.36,824.85z"/></g></g></g></g></g><g><g><g><g><g><path d="M2099.11,1059.92c0.04-0.01,0.09-0.03,0.13-0.04c0.51-0.21,0.75-0.8,0.54-1.31l-4.37-10.6c-0.21-0.51-0.8-0.76-1.31-0.54c-0.51,0.21-0.75,0.8-0.54,1.31l4.37,10.6C2098.12,1059.8,2098.63,1060.04,2099.11,1059.92z"/></g></g></g></g><g><g><g><g><path d="M2103.99,1063.09c0.03-0.01,0.06-0.02,0.09-0.03c0.52-0.19,0.79-0.76,0.6-1.28l-4.06-11.21c-0.19-0.52-0.77-0.78-1.28-0.6c-0.52,0.19-0.79,0.76-0.6,1.28l4.06,11.21C2102.98,1062.96,2103.5,1063.22,2103.99,1063.09z"/></g></g></g></g></g><g><g><g><g><path d="M2188.38,830.89c0.36-0.09,0.65-0.38,0.73-0.77c0.11-0.54-0.24-1.07-0.79-1.18c-19.42-3.87-17.81-31.15-17.79-31.43c0.04-0.55-0.38-1.03-0.93-1.07c-0.55-0.04-1.03,0.38-1.07,0.93c-0.02,0.29-1.74,29.31,19.4,33.53C2188.08,830.93,2188.23,830.93,2188.38,830.89z"/></g></g></g></g><g><g><g><g><path class="st4" d="M1994.55,888.63c0.21-0.51,0.67-0.91,1.26-1.01c0.91-0.16,1.77,0.45,1.93,1.36l4.48,26.05c0.16,0.91-0.45,1.77-1.36,1.93c-0.91,0.16-1.77-0.45-1.93-1.36l-4.48-26.05C1994.4,889.22,1994.44,888.91,1994.55,888.63z"/></g></g></g></g><g><g><g><g><g><path class="st3" d="M2201.92,824.62L2201.92,824.62c10.24,1.6,20.15-8.64,21.73-22.45l4.13-35.92l-32.35-4.83l-7.38,34.48C2185.09,809.75,2191.48,822.99,2201.92,824.62z"/></g></g></g></g><g><g><g><g><path class="st4" d="M2226.21,779.96c-7.82,13.23-32.91,8.31-33.47-5.95l2.7-12.6l32.35,4.83L2226.21,779.96z"/></g></g></g></g><g><g><g><g><path class="st3" d="M2195.26,706.06c2.03-2.9,4.39-4.69,6.59-5.78c4.34-1.26,11.34-2.7,19.95-2.38l0.41,0.06l0.24,0.04l0.41,0.06c8.33,2.21,14.61,5.62,18.39,8.1c1.79,1.69,3.52,4.09,4.62,7.46c-0.12,5.89-0.8,16.69-2.22,27.37c-1.28,9.6-5.26,18.68-11.69,25.64c-4.85,5.24-11.35,9.62-19.37,9.21c-0.55-0.07-1.13-0.16-1.71-0.24l0,0c-0.04-0.01-0.08-0.01-0.12-0.02c-0.04-0.01-0.08-0.01-0.12-0.02l0,0c-0.58-0.09-1.16-0.18-1.71-0.27c-7.8-1.95-12.73-8.03-15.84-14.47c-4.12-8.53-5.28-18.38-3.7-27.93C2191.15,722.25,2193.65,711.73,2195.26,706.06z"/></g></g></g></g><g><g><g><g><g><g><path class="st3" d="M2195.05,740.07c-0.73,4.92-5.31,8.31-10.23,7.57c-4.92-0.73-8.31-5.31-7.57-10.23s5.31-8.31,10.23-7.57C2192.39,730.58,2195.78,735.16,2195.05,740.07z"/></g></g></g></g></g><g><g><g><g><g><path class="st4" d="M2184.67,744.14c-1.87-0.28-2.91-1.87-3.11-3.33c-0.24-1.73,0.56-3.26,2.03-3.9c2.1-0.91,3.74,0.05,4.6,0.79c-0.24-1-0.72-1.78-1.43-2.33c-1.6-1.22-3.86-0.84-3.88-0.84c-0.16,0.03-0.31-0.08-0.33-0.23c-0.03-0.16,0.08-0.31,0.23-0.33c0.1-0.02,2.53-0.43,4.33,0.94c1.04,0.79,1.65,2,1.8,3.61l0.1,1.03l-0.62-0.83c-0.07-0.1-1.87-2.45-4.57-1.29c-1.49,0.64-1.84,2.18-1.69,3.29c0.16,1.17,0.96,2.61,2.67,2.85c0.16,0.02,0.27,0.17,0.25,0.32c-0.02,0.16-0.17,0.27-0.32,0.25C2184.71,744.15,2184.69,744.14,2184.67,744.14z"/></g></g></g></g></g></g><g><g><g><g><g><g><path class="st3" d="M2236.92,746.32c-0.73,4.92,2.66,9.5,7.57,10.23c4.92,0.73,9.5-2.66,10.23-7.57c0.73-4.92-2.66-9.5-7.57-10.23C2242.24,738.01,2237.66,741.41,2236.92,746.32z"/></g></g></g></g></g><g><g><g><g><g><path class="st4" d="M2245.67,753.24c1.87,0.28,3.33-0.94,3.95-2.28c0.73-1.59,0.42-3.28-0.81-4.32c-1.74-1.48-3.59-1.04-4.63-0.59c0.52-0.89,1.21-1.5,2.05-1.81c1.89-0.7,3.93,0.32,3.96,0.33c0.14,0.07,0.32,0.01,0.39-0.13c0.07-0.14,0.02-0.32-0.13-0.39c-0.09-0.05-2.3-1.14-4.42-0.36c-1.23,0.45-2.16,1.44-2.78,2.93l-0.4,0.95l0.83-0.61c0.1-0.07,2.5-1.8,4.75,0.11c1.24,1.05,1.13,2.62,0.66,3.64c-0.5,1.07-1.68,2.22-3.38,1.94c-0.15-0.03-0.3,0.08-0.33,0.24c-0.03,0.16,0.08,0.31,0.24,0.33C2245.63,753.24,2245.65,753.24,2245.67,753.24z"/></g></g></g></g></g></g><g><g><g><g><g><path d="M2224.66,738.7c-0.15,1,0.54,1.94,1.55,2.09c1,0.15,1.94-0.54,2.09-1.55s-0.54-1.94-1.55-2.09C2225.74,737,2224.81,737.7,2224.66,738.7z"/></g></g></g></g></g><g><g><g><g><g><path d="M2205.86,736.26c-0.15,1-1.08,1.7-2.09,1.55c-1-0.15-1.7-1.08-1.55-2.09c0.15-1,1.08-1.7,2.09-1.55C2205.31,734.32,2206.01,735.25,2205.86,736.26z"/></g></g></g></g></g><g><g><g><g><g><path d="M2197.01,731.71c0.34,0.05,0.7-0.01,1.01-0.21c4.79-2.97,10.66-0.05,10.72-0.02c0.74,0.37,1.64,0.08,2.01-0.65c0.38-0.73,0.09-1.63-0.64-2.01c-0.3-0.16-7.41-3.74-13.66,0.14c-0.7,0.44-0.92,1.36-0.48,2.06C2196.2,731.41,2196.59,731.65,2197.01,731.71z"/></g></g></g></g></g><g><g><g><g><g><path d="M2234.08,737.1c0.43,0.06,0.89-0.06,1.23-0.38c0.61-0.56,0.65-1.51,0.09-2.11c-4.98-5.41-12.79-3.88-13.12-3.81c-0.81,0.17-1.33,0.96-1.16,1.77c0.17,0.81,0.96,1.33,1.76,1.16l0,0c0.06-0.01,6.5-1.25,10.32,2.9C2233.44,736.9,2233.76,737.05,2234.08,737.1z"/></g></g></g></g></g><g><g><g><g><path class="st3" d="M2239.38,755.54c0,0-6.87,23.6-26.8,20.28L2239.38,755.54z"/></g></g></g></g><g><g><g><g><path class="st3" d="M2188.88,747.32c0,0-0.42,25.25,19.61,27.89l-9.6-36.13L2188.88,747.32z"/></g></g></g></g><g><g><g><g><path d="M2191.63,703.11c-0.93,7.27-3.32,32.97-4.71,48.22c-0.68,7.43,1.71,14.81,6.62,20.43c0.11,0.13,0.22,0.25,0.33,0.38c8.8,10.08,23.62,12.29,34.98,5.22c0.14-0.09,0.29-0.18,0.43-0.27c6.33-3.94,10.77-10.3,12.29-17.6c3.12-15,8.34-40.27,9.57-47.5c1.79-10.49-4.45-11.42-4.45-11.42l-22.91-5.78l0.01-0.1l-0.49-0.02l-0.47-0.12l-0.01,0.1l-23.6-1.15C2199.22,693.49,2192.98,692.56,2191.63,703.11z M2192.67,739.44l1.94-17.96c17.02,0.07,17.64-10.36,17.64-10.36l-0.29-8.33l3.78,7.73c8.76,11.48,27.98,10,27.98,10l-3.83,25.69c-0.56,3.73-4.03,6.29-7.75,5.74l-19.43-1.96l-14.26-3.07C2194.83,746.38,2192.28,743.08,2192.67,739.44z"/></g></g></g></g><g><g><g><g><path class="st4" d="M2218.64,751.07l0.96-17.12c0.03-0.48-0.34-0.9-0.83-0.93c-0.47-0.01-0.9,0.34-0.93,0.83l-0.86,15.36l-5.61-0.31c-0.47-0.02-0.9,0.34-0.93,0.83c-0.03,0.48,0.34,0.9,0.83,0.93L2218.64,751.07z"/></g></g></g></g><g><g><g><g><path d="M2210.3,694.03c4.15-0.4,31.15-7.91,43.12-2.54c11.97,5.37-2.16,40.01-6.52,42.16c-4.36,2.15,0.57-24.68,0.25-24.95c-0.31-0.27-24.25-2.05-24.25-2.05L2210.3,694.03z"/></g></g></g></g><g><g><g><g><path d="M2214.59,695.44c-0.72-0.22-10.9-3.75-18.01-2.57c-7.81,1.3-10.51,18.25-9.03,22.62c1.48,4.37,1.34,14.68,1.34,14.68s8.33-15.92,10.15-19.69C2200.84,706.72,2214.59,695.44,2214.59,695.44z"/></g></g></g></g><g><g><g><g><g><path class="st9" d="M2219.58,755.95c-0.17-0.06-10.97-1.91-10.97-1.91s0.7,4.69,4.71,5.39C2217.33,760.12,2219.58,755.95,2219.58,755.95z"/></g></g></g></g></g></g></g><g><g><g><path d="M2184.22,1131.66c71.86,0,103.44-14.72,103.79-14.89l0.67-0.32l-0.01-0.74l-2.37-242.7c-0.01-0.64-0.53-1.16-1.17-1.16c0,0-0.01,0-0.01,0c-0.65,0.01-1.17,0.54-1.16,1.18l2.36,241.93c-5.7,2.43-47.82,18.74-137.67,13.23c-0.67-0.05-1.2,0.45-1.24,1.1c-0.04,0.65,0.45,1.2,1.1,1.24C2161.37,1131.32,2173.27,1131.66,2184.22,1131.66z"/></g></g></g><g><g><g><path d="M2142.78,1556.08l0.11-1.07c0.18-1.85,18.39-185.96,24.59-234.41c6.19-48.41,23.31-128.19,23.49-128.99c0.14-0.63-0.27-1.26-0.9-1.39c-0.63-0.14-1.26,0.27-1.39,0.9c-0.17,0.8-17.32,80.68-23.52,129.18c-5.95,46.54-22.97,218.09-24.49,233.39c-7.26-0.19-49.45-1.84-71.16-14.63c-0.56-0.33-1.28-0.14-1.6,0.42c-0.33,0.56-0.14,1.28,0.41,1.6c24.23,14.27,71.4,14.95,73.4,14.98L2142.78,1556.08z"/></g></g></g><g><g><g><path d="M2214.8,1374.31c0.43,0,0.84-0.24,1.05-0.65c0.29-0.58,0.05-1.28-0.53-1.57l-16.17-8.07c-3.06-26.39-18.5-120.22-18.65-121.17c-0.1-0.64-0.71-1.07-1.35-0.97c-0.64,0.11-1.07,0.71-0.97,1.35c0.16,0.96,15.84,96.26,18.71,121.68l0.07,0.63l17.31,8.64C2214.45,1374.27,2214.63,1374.31,2214.8,1374.31z"/></g></g></g><g><g><g><path d="M2218.78,1556.08c8.82,0,46.69-0.86,71.55-14.98c0.56-0.32,0.76-1.04,0.44-1.6c-0.32-0.56-1.03-0.76-1.6-0.44c-25.23,14.34-64.38,14.71-71.17,14.68l-18.77-189.08c-0.06-0.64-0.65-1.11-1.28-1.05c-0.64,0.06-1.11,0.64-1.05,1.28l18.97,191.15l1.03,0.03C2216.95,1556.07,2217.61,1556.08,2218.78,1556.08z"/></g></g></g><g><g><g><path d="M2285.14,1263.98c0.03,0,0.07,0,0.1,0c0.64-0.06,1.12-0.62,1.06-1.27l-12.48-142.05c-0.06-0.64-0.62-1.12-1.27-1.06c-0.64,0.06-1.12,0.62-1.06,1.27l12.48,142.05C2284.02,1263.52,2284.54,1263.98,2285.14,1263.98z"/></g></g></g><g><g><g><path d="M2068.9,1317.94c0.6,0,1.11-0.46,1.17-1.07l17.08-199.82c0.05-0.64-0.42-1.21-1.07-1.27c-0.63-0.06-1.21,0.42-1.27,1.07l-17.08,199.82c-0.05,0.64,0.42,1.21,1.07,1.27C2068.83,1317.94,2068.87,1317.94,2068.9,1317.94z"/></g></g></g></g><g><g><g><path class="st8" d="M1916.41,704.93c1.43,0.24,2.91-0.47,3.59-1.83c0.11-0.23,2.84-5.75,6.96-15.64c0.72-1.72-0.1-3.7-1.82-4.42c-1.71-0.71-3.7,0.1-4.42,1.82c-4.02,9.66-6.74,15.18-6.77,15.23c-0.83,1.67-0.14,3.7,1.53,4.53C1915.77,704.78,1916.09,704.88,1916.41,704.93z"/></g></g><g><g><path class="st8" d="M1934.83,657.11c-1.77-0.59-2.72-2.51-2.13-4.28c3.63-10.8,6.94-21.83,9.84-32.78c0.47-1.8,2.32-2.88,4.13-2.4c1.8,0.48,2.88,2.33,2.4,4.13c-2.93,11.09-6.29,22.26-9.97,33.21c-0.54,1.6-2.15,2.53-3.76,2.26C1935.17,657.21,1935,657.17,1934.83,657.11z M1952.83,590.65c-1.83-0.35-3.04-2.12-2.69-3.95c0.65-3.41,1.27-6.85,1.83-10.21c1.32-7.9,2.43-15.84,3.3-23.59c0.21-1.85,1.88-3.19,3.73-2.98c1.9,0.22,3.19,1.88,2.98,3.73c-0.88,7.87-2.01,15.93-3.35,23.96c-0.57,3.41-1.2,6.9-1.86,10.36c-0.35,1.81-2.07,3-3.88,2.7C1952.88,590.66,1952.85,590.66,1952.83,590.65z M1957.6,518.83c0.27-11.59-0.03-23.05-0.89-34.07c-0.15-1.86,1.25-3.49,3.11-3.63c1.86-0.14,3.49,1.25,3.63,3.11c0.88,11.24,1.19,22.94,0.91,34.75c-0.04,1.87-1.59,3.34-3.46,3.3c-0.17,0-0.33-0.02-0.49-0.05C1958.78,521.97,1957.56,520.53,1957.6,518.83z M1662.91,435.43c-11.86-4.41-21.57-11.56-28.86-21.25c-1.12-1.49-0.82-3.61,0.67-4.73c1.49-1.12,3.61-0.82,4.73,0.67c6.5,8.64,15.19,15.02,25.82,18.98c1.75,0.65,2.64,2.6,1.99,4.34c-0.57,1.54-2.16,2.42-3.72,2.16C1663.33,435.57,1663.12,435.51,1662.91,435.43z M1694.6,437.22c-0.33-1.84,0.89-3.59,2.73-3.92c9.5-1.7,18.38-7.78,25.68-17.59c1.11-1.5,3.23-1.81,4.73-0.69c1.5,1.12,1.81,3.23,0.69,4.73c-8.35,11.21-18.69,18.19-29.9,20.2c-0.39,0.07-0.78,0.07-1.16,0.01C1696,439.73,1694.86,438.66,1694.6,437.22z M1952.14,451.04c-2.21-11.28-5.12-22.34-8.65-32.86c-0.59-1.77,0.36-3.69,2.13-4.28c1.77-0.6,3.69,0.36,4.28,2.13c3.62,10.8,6.61,22.14,8.88,33.71c0.36,1.83-0.83,3.61-2.67,3.97c-0.41,0.08-0.82,0.08-1.21,0.02C1953.55,453.5,1952.42,452.46,1952.14,451.04z M1620.6,381.08c-1.71-10.84-1.56-22.44,0.46-34.47l0.16-0.93c0.32-1.83,2.06-3.06,3.89-2.76c0,0,0.01,0,0.02,0c1.84,0.32,3.07,2.07,2.75,3.91l-0.15,0.89c-1.9,11.31-2.05,22.17-0.45,32.29c0.29,1.84-0.97,3.57-2.81,3.87c-0.37,0.06-0.74,0.05-1.09,0C1621.99,383.66,1620.84,382.56,1620.6,381.08z M1739.39,389.98c-1.79-0.51-2.83-2.39-2.32-4.18c1.39-4.84,2.54-9.98,3.43-15.28c0.96-5.75,1.63-11.78,1.98-17.91c0.11-1.86,1.7-3.29,3.57-3.18c1.85,0.12,3.29,1.7,3.18,3.57c-0.36,6.37-1.06,12.65-2.06,18.64c-0.93,5.55-2.14,10.94-3.6,16.03c-0.48,1.67-2.13,2.68-3.8,2.4C1739.65,390.05,1739.52,390.02,1739.39,389.98z M1930.46,386.84c-5.07-10.09-10.92-19.89-17.4-29.11c-1.07-1.53-0.7-3.64,0.82-4.71c1.53-1.07,3.64-0.7,4.71,0.82c6.67,9.49,12.69,19.57,17.91,29.96c0.84,1.67,0.16,3.7-1.5,4.54c-0.67,0.33-1.39,0.43-2.07,0.31C1931.9,388.49,1930.97,387.85,1930.46,386.84z M1633.53,316.59c-1.69-0.79-2.42-2.8-1.63-4.49c5.06-10.82,11.43-20.82,18.92-29.73c1.2-1.43,3.33-1.61,4.76-0.41c1.43,1.2,1.61,3.33,0.41,4.76c-7.11,8.45-13.16,17.95-17.97,28.24c-0.66,1.41-2.16,2.15-3.62,1.9C1634.11,316.81,1633.82,316.72,1633.53,316.59z M1741.46,318.79c-1.25-11.01-3.38-22.22-6.35-33.32c-0.48-1.8,0.59-3.66,2.39-4.14c1.8-0.48,3.66,0.59,4.14,2.39c3.05,11.43,5.24,22.97,6.53,34.3c0.21,1.85-1.12,3.53-2.98,3.74c-0.32,0.04-0.64,0.03-0.94-0.02C1742.81,321.5,1741.63,320.32,1741.46,318.79z M1891.72,331.27c-7.66-8.38-15.87-16.35-24.42-23.68c-1.42-1.22-1.58-3.35-0.37-4.77c1.22-1.42,3.35-1.58,4.77-0.36c8.76,7.51,17.17,15.67,25.01,24.26c1.26,1.38,1.16,3.52-0.22,4.77c-0.8,0.73-1.85,1-2.84,0.84C1892.94,332.21,1892.25,331.85,1891.72,331.27z M1676.67,264.14c-0.93-1.62-0.38-3.68,1.23-4.62c10.05-5.8,21.22-9.92,33.22-12.22c1.83-0.35,3.61,0.85,3.96,2.68c0.35,1.83-0.85,3.6-2.68,3.96c-11.26,2.17-21.73,6.01-31.12,11.44c-0.71,0.41-1.5,0.53-2.25,0.41C1678.08,265.62,1677.19,265.05,1676.67,264.14z M1840.16,287.11c-9.63-6.34-19.58-11.96-29.57-16.7c-1.69-0.8-2.4-2.82-1.6-4.5c0.8-1.69,2.81-2.4,4.5-1.61c10.27,4.87,20.5,10.65,30.39,17.16c1.56,1.03,1.99,3.12,0.96,4.68c-0.76,1.15-2.1,1.69-3.38,1.47C1841.01,287.54,1840.56,287.38,1840.16,287.11z M1724.14,253.32c-4.31-10.32-9.38-20.58-15.07-30.48c-0.93-1.62-0.37-3.68,1.25-4.61c1.62-0.93,3.68-0.37,4.61,1.25c5.83,10.15,11.03,20.66,15.44,31.24c0.72,1.72-0.09,3.7-1.82,4.42c-0.61,0.25-1.25,0.32-1.86,0.22C1725.6,255.17,1724.61,254.43,1724.14,253.32z M1778.95,258.36c-11.24-3.23-22.45-5.3-33.14-6.12c-1.9-0.14-3.26-1.77-3.11-3.63c0.14-1.86,1.77-3.25,3.63-3.11c11.15,0.85,22.82,3,34.49,6.36c1.79,0.52,2.83,2.39,2.32,4.18c-0.48,1.67-2.13,2.68-3.8,2.4C1779.21,258.42,1779.08,258.39,1778.95,258.36z M1690.35,194.5c-6.71-8.73-14.35-17.2-22.71-25.17c-1.35-1.29-1.4-3.43-0.11-4.78c1.29-1.35,3.43-1.4,4.78-0.11c8.6,8.21,16.47,16.94,23.4,25.94c1.14,1.48,0.86,3.6-0.62,4.74c-0.78,0.6-1.73,0.8-2.62,0.65C1691.65,195.64,1690.89,195.21,1690.35,194.5z M1641.53,147.57c-8.86-6.48-18.49-12.71-28.61-18.53c-1.62-0.93-2.18-3-1.25-4.61c0.93-1.62,3-2.18,4.61-1.25c10.33,5.94,20.16,12.31,29.23,18.93c1.51,1.1,1.83,3.22,0.73,4.72c-0.78,1.07-2.07,1.54-3.29,1.34C1642.46,148.09,1641.97,147.89,1641.53,147.57z M1582.55,113.45c-10.07-4.61-20.71-8.98-31.64-12.97c-1.75-0.64-2.65-2.58-2.01-4.34c0.64-1.75,2.58-2.66,4.33-2.01c11.09,4.06,21.9,8.49,32.13,13.18c1.7,0.78,2.44,2.78,1.66,4.48c-0.65,1.42-2.16,2.17-3.63,1.93C1583.11,113.67,1582.83,113.58,1582.55,113.45z M1518.37,89.85c-10.84-3.14-22.01-5.99-33.19-8.48c-1.82-0.4-2.97-2.21-2.57-4.03c0.4-1.82,2.23-2.97,4.03-2.57c11.32,2.51,22.63,5.4,33.61,8.58c1.79,0.52,2.82,2.39,2.3,4.19c-0.48,1.66-2.13,2.67-3.8,2.39C1518.63,89.91,1518.5,89.88,1518.37,89.85z"/></g></g><g><g><path class="st8" d="M1434.53,72.81c0.08,0.01,0.17,0.03,0.26,0.03c0.06,0.01,6.22,0.57,16.55,2.15c1.84,0.28,3.57-0.99,3.85-2.83c0.28-1.83-0.96-3.54-2.78-3.84c-0.02,0-0.03-0.01-0.05-0.01c-10.56-1.61-16.7-2.18-16.96-2.2c-1.86-0.17-3.5,1.2-3.67,3.06C1431.56,70.94,1432.8,72.52,1434.53,72.81z"/></g></g></g><g><g><g><path class="st6" d="M1392.28,91.57l-15.21-24.72c0,0-91.68-25.79-92.87-26.67c-1.2-0.88-45.15-33.02-45.15-33.02l60.91,6.62l96.23,30.73L1392.28,91.57z"/></g></g><g><g><polygon class="st10" points="1426.62,0 1239.04,7.17 1396.18,44.51 "/></g></g><g><g><polygon class="st10" points="1377.07,66.86 1345.01,114.31 1239.04,7.17 "/></g></g></g><g><path class="st10" d="M1920.42,1597.89H659.9c-15.86,0-28.73-12.86-28.73-28.73V784.66c0-15.86,12.86-28.73,28.73-28.73h1260.52c15.86,0,28.73,12.86,28.73,28.73v784.51C1949.15,1585.03,1936.29,1597.89,1920.42,1597.89z"/></g><g class="st11"><path class="st4" d="M1949.15,1498.78V794.21c0-21.14-17.14-38.28-38.28-38.28H878.84c0.12,9.43-0.03,18.66,1.25,25.67c8.77,48.17,31.92,93.47,63.9,130.35c46.4,53.51,110.11,90.05,177.3,112.48c34.77,11.61,70.91,19.78,103.83,35.91c32.92,16.14,63.23,41.98,74.39,76.9c9.81,30.68,3.79,64.41,11.44,95.71c11.13,45.53,50.49,80.13,94.24,96.95c43.75,16.83,91.72,18.5,138.59,17.95c43.11-0.51,88.11-2.37,127.19,15.85c48.02,22.39,78.6,71.19,124.04,98.45c39.49,23.69,86.87,29.28,132.65,34.34C1934.79,1497.28,1941.96,1498.06,1949.15,1498.78z"/></g><g><rect x="1624.47" y="738.88" class="st12" width="148.58" height="864.36"/></g><g><rect x="1218.12" y="499.12" transform="matrix(-1.836970e-16 1 -1 -1.836970e-16 2466.6157 -112.7918)" class="st12" width="143.16" height="1355.57"/></g><g><rect x="725.09" y="1493" class="st13" width="330.2" height="13"/></g><g><rect x="724.73" y="1528" class="st13" width="572.57" height="13"/></g><g><path class="st12" d="M1656.06,1185.81c0,0,163.43,113.81,275.53,135.47c45.17,8.72,86.8-27.02,86.8-73.02v-196.47c0-54.91-57.8-91.22-106.86-66.54C1801.01,1040.85,1656.06,1185.81,1656.06,1185.81z"/></g><g><path class="st12" d="M1741.46,1185.81c0,0-163.43,113.81-275.53,135.47c-45.17,8.72-86.8-27.02-86.8-73.02v-196.47c0-54.91,57.8-91.22,106.86-66.54C1596.51,1040.85,1741.46,1185.81,1741.46,1185.81z"/></g><g><path class="st14" d="M1790.58,1090.8c0,0,140.7-133.79,185.01-88.71S1790.58,1090.8,1790.58,1090.8z"/></g><g><path class="st14" d="M1610.95,1090.8c0,0-140.7-133.79-185.01-88.71S1610.95,1090.8,1610.95,1090.8z"/></g><g><path d="M1452.36,1324.57c-17.06,0-33.76-5.95-47.31-17.14c-17.74-14.64-27.91-36.21-27.91-59.18v-196.47c0-26.7,13.6-51.02,36.37-65.06c22.48-13.85,49.92-15.07,73.38-3.27c32.72,16.46,71.67,42.36,115.75,76.97l47.86,38.46l-2.5,3.12l-47.84-38.44c-43.85-34.43-82.57-60.18-115.05-76.53c-22.22-11.18-48.2-10.02-69.49,3.1c-21.58,13.3-34.47,36.35-34.47,61.66v196.47c0,21.77,9.64,42.22,26.46,56.1c16.32,13.47,37.44,18.92,57.96,14.96c87.39-16.88,206.54-90.28,253.71-121.06l2.18,3.35c-47.37,30.91-167.05,104.62-255.13,121.64C1461.67,1324.13,1457,1324.57,1452.36,1324.57z"/></g><g><path d="M1945.17,1324.57c-4.64,0-9.31-0.44-13.95-1.34c-88.08-17.01-207.77-90.73-255.13-121.64l2.18-3.35c47.17,30.78,166.32,104.18,253.71,121.06c20.52,3.96,41.64-1.49,57.96-14.96c16.82-13.88,26.46-34.33,26.46-56.1v-196.47c0-25.3-12.89-48.35-34.47-61.65c-21.29-13.12-47.27-14.28-69.49-3.1c-32.49,16.35-71.2,42.1-115.07,76.54l-47.82,38.43l-2.5-3.12l47.84-38.44c44.09-34.62,83.03-60.52,115.76-76.98c23.47-11.81,50.9-10.59,73.39,3.27c22.77,14.04,36.37,38.36,36.37,65.06v196.47c0,22.97-10.17,44.54-27.91,59.18C1978.92,1318.62,1962.23,1324.57,1945.17,1324.57z"/></g><g><path class="st14" d="M1749.65,1267.55h-94.33c-7.12,0-12.89-5.77-12.89-12.89v-150.97c0-7.12,5.77-12.89,12.89-12.89h94.33c7.12,0,12.89,5.77,12.89,12.89v150.97C1762.54,1261.78,1756.77,1267.55,1749.65,1267.55z"/></g><g><rect x="925.59" y="1103.33" width="453.54" height="4"/></g><g><rect x="611.92" y="1246.37" width="767.21" height="4"/></g><g><rect x="858.15" y="1142.63" transform="matrix(0.877 -0.4805 0.4805 0.877 -441.5349 564.4275)" width="47.06" height="4"/></g><g><rect x="855.31" y="1163.6" transform="matrix(0.877 -0.4805 0.4805 0.877 -451.9595 565.6331)" width="47.06" height="4"/></g><g><path d="M1749.24,1269.55h-93.51c-8.44,0-15.3-6.86-15.3-15.3V1104.1c0-8.44,6.86-15.3,15.3-15.3h93.51c8.44,0,15.3,6.86,15.3,15.3v150.15C1764.54,1262.69,1757.67,1269.55,1749.24,1269.55z M1655.72,1092.8c-6.23,0-11.3,5.07-11.3,11.3v150.15c0,6.23,5.07,11.3,11.3,11.3h93.51c6.23,0,11.3-5.07,11.3-11.3V1104.1c0-6.23-5.07-11.3-11.3-11.3H1655.72z"/></g><g><path d="M1610.57,1092.76c-140.36-27.15-176.93-56.94-178.41-58.19l2.57-3.06c0.36,0.3,37.63,30.44,176.6,57.32L1610.57,1092.76z"/></g><g><path d="M1867.52,1031.24l-2.43-3.18c2.45-1.88,60.55-45.9,97.15-35.88l-1.06,3.85C1926.48,986.56,1868.11,1030.79,1867.52,1031.24z"/></g><g><path d="M2004.16,1178.92c-1.45,0-1.84-1.08-1.96-2.01h-0.02h0.02c-0.04-0.3-0.05-0.59-0.05-0.81l-2.26-78.05l4-0.11c0.77,26.8,2.24,77.78,2.29,78.87l-2,0.1l0,0.01h2l-1.97,2.01C2004.19,1178.92,2004.18,1178.92,2004.16,1178.92z"/></g><g><rect x="1993.24" y="1158.5" transform="matrix(0.9987 -0.0515 0.0515 0.9987 -58.1402 104.2802)" width="4" height="44.54"/></g><g><rect x="1390.43" y="1203.01" width="4" height="51.82"/></g><g><rect x="1400.52" y="1180.77" width="4" height="40.13"/></g><g><rect x="1670.62" y="1120.52" transform="matrix(0.8068 -0.5908 0.5908 0.8068 -348.5128 1207.8654)" width="4" height="32.6"/></g><g><rect x="1669.46" y="1148.09" transform="matrix(0.8031 -0.5959 0.5959 0.8031 -360.6821 1223.9396)" width="4" height="19.18"/></g><g><polygon points="1775.05,1080.54 1771.05,1080.54 1771.05,740.88 1716.19,740.88 1716.19,736.88 1775.05,736.88 "/></g><g><rect x="1622.47" y="883.37" width="4" height="197.16"/></g><g><rect x="1622.9" y="1257" width="4" height="287.66"/></g><g><polygon points="1775.49,1601.66 1727.64,1601.66 1727.64,1597.66 1771.5,1597.66 1771.94,1257.71 1775.94,1257.71 "/></g><g><rect x="1695.15" y="1345.92" transform="matrix(0.7071 -0.7071 0.7071 0.7071 -453.0165 1602.163)" width="24.64" height="4"/></g><g><rect x="1695.12" y="1363.39" transform="matrix(0.7052 -0.7091 0.7091 0.7052 -464.6934 1613.2748)" width="24.71" height="4"/></g><g><path d="M1951.15,977.36h-4V792.14c0-18.86-15.35-34.21-34.21-34.21h-75.72v-4h75.72c21.07,0,38.2,17.14,38.2,38.21V977.36z"/></g><g><path d="M960.44,1599.89H668.8c-21.85,0-39.62-17.78-39.62-39.62v-251.33h4v251.33c0,19.64,15.98,35.63,35.63,35.63h291.64V1599.89z"/></g><g><rect x="1360.33" y="789.66" width="113.73" height="4"/></g><g><rect x="1433.45" y="819.01" width="88.75" height="4"/></g><g><g><g><g><g><g><g><g><g><g><g><polygon class="st15" points="1114.64,1017.44 1188.45,1018.44 1189.51,949.45 1115.99,940.34 "/></g></g></g></g></g></g></g></g></g></g><g><g><g><g><g><g><g><path class="st16" d="M1038.81,1030.78h150.7v-30.06c0,0-10.96-14.43-27.65-7.06c0,0-24.71,17.73-46.96-3.46l-55.8,23.75C1059.1,1013.95,1038.81,1020.56,1038.81,1030.78z"/></g></g></g></g></g></g><g><g><g><g><g><g><path class="st17" d="M1189.51,1041.3h-155.26c-1.1,0-1.99-0.89-1.99-1.99v-6.54c0-1.1,0.89-1.99,1.99-1.99h155.26V1041.3z"/></g></g></g></g></g></g></g><g><g><g><g><g><path class="st16" d="M1275.14,627.71c0,0-155.44,24.18-159.95,42.2c-4.51,18.02-17.42,209.63-7.76,291.38c0,0,59.22,4.08,87.54-2.79l6.89-199.32l46.75-5.36l107.09-128.73L1275.14,627.71z"/></g></g></g></g></g><g><g><g><g><g><path class="st8" d="M1298.38,923.16c3-11.58,3.86-124.56,3.9-129.36l-2.17-0.02c-0.01,1.17-0.89,117.51-3.83,128.83L1298.38,923.16z"/></g></g></g></g></g><g><g><g><g><g><path class="st8" d="M1186.53,763.43c14.27-4.62,33.92-5.31,34.11-5.32l-0.07-2.17c-0.2,0.01-20.14,0.71-34.71,5.42L1186.53,763.43z"/></g></g></g></g></g><g><g><g><g><g><path class="st8" d="M1154.41,963.54c24.04,0,40.64-3.94,40.81-3.98l0.8-0.19l6.97-201.54l-8.9,7.16l1.36,1.69l5.2-4.19l-6.75,195.13c-3.68,0.79-19.73,3.96-41.6,3.73l-0.02,2.17C1153,963.53,1153.71,963.54,1154.41,963.54z"/></g></g></g></g></g><g><g><g><g><g><g><path class="st12" d="M1353.88,578.28c-2.15-0.04-88.61,37.15-88.61,37.15l17.42,33.34l48.52-10.65L1353.88,578.28z"/></g></g></g></g></g></g><g><g><g><g><path class="st12" d="M1479.15,423.32c0,0,36.76-1.29,54.31,8.66c26.19,14.84,16.86,99.81,16.86,99.81s-22.26-12.14-23.6-16.19C1525.38,511.56,1479.15,423.32,1479.15,423.32z"/></g></g></g></g><g class="st11"><g><rect x="1237.33" y="828.33" transform="matrix(0.9794 -0.2018 0.2018 0.9794 -148.7773 268.726)" class="st16" width="12.56" height="71.46"/></g></g><g class="st11"><g><rect x="1266.56" y="822.3" transform="matrix(0.9794 -0.2018 0.2018 0.9794 -146.965 274.5123)" class="st16" width="12.56" height="71.46"/></g></g><g class="st11"><g><rect x="1295.79" y="816.28" transform="matrix(0.9794 -0.2018 0.2018 0.9794 -145.1436 280.2765)" class="st16" width="12.56" height="71.46"/></g></g><g><g><g><g><path class="st12" d="M1514.74,429.96c-20.9-2.89-76.03-4.89-76.03-4.89s-7.3,1.92-4.98,0.84c-60.89,10.75-67.62,55.9-67.62,55.9l-29.72,130.46l-33.07,1.79c-10.7,20.28-2.84,74.98-2.84,74.98l160.19,18.05c0,0,34.63,5.71,63.91-31.85c19.37-24.85,25.96-101.13,25.96-156.86C1550.54,518.38,1547.21,434.45,1514.74,429.96z"/></g></g></g></g><g><g><g><g><g><g><path class="st8" d="M1460.89,614.52c-0.18,0.07-0.39,0.09-0.59,0.04c-0.54-0.13-0.88-0.67-0.75-1.22c0.17-0.71,16.91-71.88,24.03-116.67c0.09-0.55,0.61-0.93,1.16-0.84c0.55,0.09,0.93,0.61,0.84,1.16c-7.14,44.86-23.89,116.1-24.06,116.81C1461.44,614.15,1461.2,614.41,1460.89,614.52z"/></g></g></g></g></g></g><g><g><g><g><g><g><path class="st8" d="M1357.28,613.35c-0.21,0.08-0.44,0.09-0.66,0.02c-0.53-0.17-0.83-0.74-0.66-1.27c0.25-0.79,25.09-79.6,30.28-106.85c0.11-0.55,0.64-0.91,1.18-0.8c0.55,0.1,0.91,0.63,0.8,1.18c-5.21,27.36-30.08,106.29-30.34,107.08C1357.79,613.02,1357.56,613.25,1357.28,613.35z"/></g></g></g></g></g></g><g><g><g><g><g><g><path class="st8" d="M1458.26,463.3c-0.78,0.08-1.58,0.15-2.39,0.21c-0.46,0.03-0.86-0.32-0.9-0.78c-0.03-0.46,0.3-0.86,0.78-0.9c34.84-2.45,41.31-27.95,41.36-28.21c0.09-0.45,0.51-0.76,0.97-0.68c0.45,0.08,0.76,0.49,0.7,0.94C1498.73,434.15,1492.3,459.78,1458.26,463.3z"/></g></g></g></g></g></g><g><g><g><g><g><g><path class="st8" d="M1350.17,594.54c-0.45,0.17-0.98,0-1.23-0.44l-6.79-11.64l0.09-0.39l22.89-100.46c0.14-0.91,2.13-12.61,12.05-25.52c9.3-12.1,27.65-27.49,62.22-32.09c0.55-0.07,1.06,0.32,1.14,0.87c0.07,0.55-0.32,1.06-0.87,1.14c-33.82,4.5-51.74,19.47-60.82,31.23c-9.83,12.75-11.71,24.6-11.73,24.72l-0.01,0.08l-22.81,100.11l6.39,10.95c0.28,0.48,0.12,1.1-0.36,1.38C1350.27,594.5,1350.22,594.53,1350.17,594.54z"/></g></g></g></g></g></g><g><g><g><g><g><g><g><g><g><path class="st3" d="M1430.39,349.19l-1.14,44.02c0,0-0.96,14.14,11.38,16.23l-2.8,18.82c-1.04,7,2.98,13.82,9.67,16.13c3.27,1.13,7.18,1.99,11.65,2.11c14.15,0.37,22.09-10.05,23.41-15.32c1.32-5.28-1.56-30.72-1.56-30.72l0.75-12.45l-0.36-48.32L1430.39,349.19z"/></g></g></g></g></g></g></g></g><g><g><g><g><g><g><g><g><path class="st4" d="M1469.65,398.16c0,0-1.44,23.67-31.09,25.16l2.07-13.88C1440.63,409.44,1459.72,413.79,1469.65,398.16z"/></g></g></g></g></g></g></g></g><g><g><g><g><g><g><g><g><path class="st18" d="M1463.96,373.17c0.15,0,0.3-0.05,0.41-0.15c0.24-0.22,0.26-0.59,0.04-0.83c-0.08-0.09-7.97-8.59-15.54-2.81c-0.26,0.2-0.31,0.57-0.11,0.83c0.2,0.26,0.57,0.31,0.83,0.11c6.7-5.12,13.66,2.35,13.95,2.67C1463.65,373.1,1463.81,373.16,1463.96,373.17z"/></g></g></g></g></g></g></g></g><g><g><g><g><g><g><path class="st18" d="M1484.45,367.51l-12.8,2.32l-2.36,2.32c0,0,1.66-21.31,4.16-25.44C1475.95,342.58,1484.45,367.51,1484.45,367.51z"/></g></g></g></g></g></g><g><g><g><g><g><g><g><g><path class="st18" d="M1439.75,369c0.17,0,0.33-0.06,0.45-0.19c0.22-0.24,0.2-0.61-0.04-0.83c-0.23-0.21-5.73-5.17-9.37-2.21c-0.25,0.21-0.29,0.58-0.09,0.83c0.21,0.25,0.58,0.29,0.83,0.09c2.85-2.32,7.78,2.12,7.83,2.17C1439.47,368.94,1439.61,369,1439.75,369z"/></g></g></g></g></g></g></g></g><g><g><g><g><g><g><g><g><path d="M1451.98,375.24c-0.03,0.98,0.75,1.79,1.72,1.82c0.98,0.03,1.79-0.75,1.81-1.72s-0.75-1.79-1.72-1.81C1452.81,373.49,1452,374.26,1451.98,375.24z"/></g></g></g></g></g></g></g></g><g><g><g><g><g><g><g><g><path d="M1433.22,372.98c-0.03,0.98,0.75,1.79,1.72,1.81c0.98,0.03,1.79-0.75,1.81-1.72c0.03-0.98-0.75-1.79-1.72-1.82C1434.06,371.24,1433.24,372.01,1433.22,372.98z"/></g></g></g></g></g></g></g></g><g><g><g><g><g><g><g><g><path class="st3" d="M1466.6,375.01c-0.15,5.86,4.48,10.74,10.34,10.89c5.86,0.15,10.74-4.48,10.89-10.34c0.15-5.86-4.48-10.74-10.34-10.89C1471.63,364.52,1466.75,369.14,1466.6,375.01z"/></g></g></g></g></g></g></g></g><g><g><g><g><g><g><g><g><path class="st4" d="M1478.92,381.22c2.2,0.06,3.72-1.56,4.25-3.21c0.62-1.94,0.02-3.86-1.55-4.89c-2.31-1.52-4.47-0.64-5.58,0.05c0.49-1.19,1.23-2.05,2.21-2.56c2.12-1.1,4.69-0.19,4.72-0.18c0.15,0.06,0.32-0.02,0.38-0.18c0.06-0.15-0.02-0.32-0.18-0.38c-0.11-0.04-2.83-1-5.19,0.21c-1.36,0.7-2.3,1.98-2.81,3.8l-0.28,1.02l0.77-0.73c0.11-0.1,2.7-2.49,5.63-0.56c1.63,1.07,1.72,2.94,1.31,4.22c-0.43,1.33-1.64,2.85-3.67,2.8c-0.02,0-0.04,0-0.06,0c-0.16,0-0.3,0.12-0.3,0.28c-0.01,0.16,0.12,0.3,0.28,0.31C1478.88,381.22,1478.9,381.22,1478.92,381.22z"/></g></g></g></g></g></g></g></g><g><g><g><g><g><g><g><g><path class="st4" d="M1445.43,387.01c0.12,0,0.24-0.07,0.29-0.19c0.06-0.15-0.02-0.32-0.18-0.38l-5.86-2.11l2.23-13.86c0.03-0.16-0.08-0.31-0.24-0.34c-0.16-0.03-0.31,0.08-0.34,0.24l-2.31,14.34l6.32,2.27C1445.36,387.01,1445.39,387.01,1445.43,387.01z"/></g></g></g></g></g></g></g></g><g><g><g><g><g><g><g><g><path class="st9" d="M1449.85,392.87c-0.18-0.04-11.67-0.61-11.67-0.61s1.32,4.79,5.59,5.01C1448.04,397.5,1449.85,392.87,1449.85,392.87z"/></g></g></g></g></g></g></g></g><g><g><g><g><g><g><path class="st18" d="M1484.45,367.51c0,0,4.12-20.57-2.01-28.44c-6.13-7.87-42.1-22.29-46.6-18.55s-0.22,8.53-0.22,8.53s-14.46-5.06-18.1,7.79s27.59,19.16,46.45,13.59C1463.97,350.42,1476.25,354.35,1484.45,367.51z"/></g></g></g></g></g></g></g><g><g><g><g><g><g><path class="st8" d="M1488.07,607.78c-0.04,0.02-0.09,0.03-0.13,0.04l-27.05,6.19c-0.54,0.12-1.09-0.22-1.21-0.76s0.21-1.09,0.76-1.21l27.05-6.19c0.54-0.12,1.09,0.22,1.21,0.76C1488.81,607.11,1488.54,607.6,1488.07,607.78z"/></g></g></g></g></g></g><g><g><g><g><g><g><path class="st8" d="M1314.35,594.91c-0.51,0.19-1.09-0.06-1.3-0.57c-0.21-0.52,0.05-1.11,0.56-1.31l29.23-11.66c0.54-0.19,1.11,0.05,1.31,0.56c0.21,0.52-0.05,1.11-0.56,1.31l-29.23,11.66C1314.36,594.91,1314.36,594.91,1314.35,594.91z"/></g></g></g></g></g></g><g><g><g><g><g><g><g><g><g><g><polygon class="st15" points="1229.2,1017.44 1303.01,1018.44 1304.07,949.45 1230.55,940.34 "/></g></g></g></g></g></g></g></g></g></g><g><g><path class="st7" d="M1460.67,707.09l-103.93-11.71c-14.96,19.59-24.85,34.19-24.85,34.19l12.28,41.83c0,0,63.54,1.04,108.07-0.48c14.29-0.49,27.02,0.52,34.55-1.16c18.62-4.14,28.81-40.72,26.34-82.12C1486.99,711.42,1460.67,707.09,1460.67,707.09z"/></g></g><g><g><path class="st7" d="M1300.48,689.04c0,0-2.27-15.77-2.71-33.52c-32.92,11.19-69.45,25.65-71.89,35.43c-4.51,18.02-17.33,189.02-7.68,270.77c0,0,63.68,3.65,92-3.22l7.63-188.02l27.47,0.96l41.32-72.69L1300.48,689.04z"/></g></g><g><g><g><g><g><g><path class="st8" d="M1488.58,704.08c-2.37,0.9-4.61,1.6-6.67,2.15c-12.38,3.29-21.04,1.92-21.4,1.86c-0.55-0.09-0.92-0.61-0.83-1.16c0.09-0.55,0.61-0.92,1.16-0.83c0.09,0.01,8.67,1.35,20.66-1.85c11.06-2.95,27.37-10.49,42.29-29.62c18.73-24.02,25.57-97.98,25.74-154.02c0-0.56,0.46-1.01,1.01-1.01c0.56,0,1.01,0.46,1.01,1.01c-0.17,56.35-7.12,130.83-26.17,155.25C1512.85,691.93,1499.32,700.02,1488.58,704.08z"/></g></g></g></g></g></g><g><g><g><g><path class="st8" d="M1391.99,773.42c27.72,0,60.96-0.94,98.33-3.75l-0.16-2.16c-111.33,8.39-185.99,0.09-186.74,0l-0.25,2.15C1303.67,769.72,1336.95,773.42,1391.99,773.42z"/></g></g></g></g><g><g><g><g><g><path class="st8" d="M1272,963.94c28.14,0,38.17-4.24,38.64-4.45l0.62-0.27l7.39-189.13l-11.63,5.48l0.93,1.96l8.39-3.96l-7.19,184.15c-3.04,1.05-17.64,5.26-52.1,3.67l-0.1,2.17C1262.46,963.83,1267.46,963.94,1272,963.94z"/></g></g></g></g></g><g><g><g><g><g><g><g><path class="st7" d="M1153.37,1031.24h150.7v-30.06c0,0-10.96-14.43-27.65-7.06c0,0-24.71,17.73-46.96-3.46l-55.8,23.75C1173.66,1014.41,1153.37,1021.02,1153.37,1031.24z"/></g></g></g></g></g></g><g><g><g><g><g><g><path class="st19" d="M1304.07,1041.76h-155.26c-1.1,0-1.99-0.89-1.99-1.99v-6.54c0-1.1,0.89-1.99,1.99-1.99h155.26V1041.76z"/></g></g></g></g></g></g></g><g><g><g><path class="st12" d="M1212.04,552.1c-4.97,0.23-8.71-1.05-11.31-3.86c-6.23-6.72-2.42-19.2,1.87-28.48c4.71-10.18,9.49-18.3,14.21-24.12c9.71-11.98,17.78-11.98,22.84-9.87l0,0c15.99,6.66,23.99,15.44,23.79,26.09c-0.3,15.88-19.77,30.32-37.73,37.01C1220.4,550.84,1215.86,551.92,1212.04,552.1z M1234.18,493.24c-6.35,0.3-15.22,11.38-23.87,30.09c-4.85,10.49-5.17,17.17-3.34,19.14c0.7,0.75,3.9,2.86,15.77-1.56c15.67-5.84,32-18.36,32.21-29.21c0.16-8.49-10-14.52-18.56-18.08C1235.69,493.32,1234.95,493.2,1234.18,493.24z"/></g></g><g><g><path class="st12" d="M1190.18,556.73c-3.82,0.18-8.44-0.47-13.9-1.93c-18.51-4.97-39.26-17.5-41.05-33.29c-1.21-10.58,5.93-20.08,21.22-28.21l0,0c4.84-2.57,12.87-3.33,23.67,7.68c5.25,5.35,10.77,12.98,16.42,22.67c5.15,8.83,10.11,20.9,4.54,28.18C1198.75,554.86,1195.14,556.49,1190.18,556.73z M1160.44,500.79c-8.18,4.36-17.74,11.32-16.78,19.75c1.23,10.78,18.67,21.71,34.82,26.04c12.24,3.29,15.23,0.88,15.85,0.07c1.63-2.14,0.68-8.76-5.13-18.74C1177.56,507.94,1166.54,497.54,1160.44,500.79L1160.44,500.79z"/></g></g><g><g><rect x="1116.23" y="548.23" transform="matrix(0.9989 -0.0472 0.0472 0.9989 -28.2807 57.589)" class="st20" width="179.32" height="159.4"/></g></g><g><g><rect x="1108.24" y="548.29" transform="matrix(0.9989 -0.0472 0.0472 0.9989 -25.6472 57.4021)" class="st21" width="190.02" height="47.5"/></g></g><g><g><rect x="1200.86" y="548.27" transform="matrix(0.9989 -0.0472 0.0472 0.9989 -28.2851 57.5473)" class="st12" width="8.18" height="159.4"/></g></g><g><g><rect x="1200.86" y="536.21" transform="matrix(0.0472 0.9989 -0.9989 0.0472 1775.3676 -605.2618)" class="st12" width="8.18" height="183.52"/></g></g></g><g><g><path class="st3" d="M1235.95,665.91c-0.39-2.59,1.43-5,3.99-5.55l15.92-3.44c0.5-0.11,0.87-0.52,0.93-1.03l0,0c0.09-0.75-0.53-1.39-1.28-1.33l-23.97,1.92c-2.75,0.22-4.73-1.84-4.41-4.58l0,0c0.32-2.74,2.83-5.16,5.57-5.38l24.45-1.96c0.57-0.05,1.02-0.49,1.09-1.05l0.05-0.4c0.08-0.65-0.39-1.25-1.05-1.32l-27.02-3.15c-2.6-0.3-4.64-2.53-4.51-5.14c0.15-2.86,2.67-4.96,5.48-4.64l27.19,3.17c0.65,0.08,1.25-0.39,1.32-1.05l0.15-1.27c0.07-0.6-0.31-1.15-0.89-1.3l-24.66-6.21c-2.54-0.64-4.27-3.11-3.8-5.69c0.52-2.82,3.3-4.57,6.03-3.89c0,0,38.11,7.44,44.16,8.12l-6.58-12.59c-1.68-2.13-1.32-5.22,0.81-6.9l0,0c2.13-1.68,5.22-1.32,6.9,0.81l22.38,22.37c1.1,1.39,0.7,4.91-0.3,7.66c-1.16,28.97-1.57,33.43-2.6,41.21l-30.64-4.63c-8.84-1.34-17.85-1.05-26.6,0.84l-2.19,0.47C1239.09,670.59,1236.37,668.75,1235.95,665.91z"/></g></g><g><g><g><g><path class="st12" d="M1303.32,614.05c0,0-10.57,24.95-2.84,74.98l10.65-35.39l16.52-22.72L1303.32,614.05z"/></g></g></g></g><g><g><g><g><g><g><path class="st8" d="M1495.83,615.42c-0.12,0.05-0.25,0.07-0.39,0.07c-1.45-0.04-144.58-4.34-191.41-0.48c-1.15,3.07-6.44,18.96-4.96,48.02c0.03,0.56-0.4,1.03-0.96,1.06c-0.56,0.03-1.03-0.4-1.06-0.96c-1.68-32.93,5.05-48.82,5.34-49.48l0.24-0.55l0.6-0.05c46.28-3.96,190.81,0.37,192.26,0.42c0.56,0.02,1,0.48,0.98,1.04C1496.47,614.93,1496.2,615.28,1495.83,615.42z"/></g></g></g></g></g></g></g><g><g><g><g><path class="st22" d="M2334.76,739.44c0,0-10.25-18.51,10.31-36.62c20.56-18.11,26.62,8.96,35.38,10.75c8.76,1.78,23.91-2.67,31.03,12.77c7.13,15.44,4.93,27.43,14.14,29.14c9.21,1.71,40.68,21.97,35.63,52.56c-5.05,30.59-34.33,31.44-34.33,31.44s-114,14.59-124.25-14.52c-10.25-29.1-0.29-42.92,13.38-54.2C2324.45,763.82,2341.94,757.18,2334.76,739.44z"/></g></g></g><g><g><g><g><g><path class="st3" d="M2347.41,747.74c0,0-6.19,41.52,0.79,50.73c0,0,3.41,4.9,11.58,5.05v25.98h36.67v-85.24L2347.41,747.74z"/></g></g></g></g><g><g><g><g><path class="st4" d="M2359.38,780.35c0.15,0,0.29-0.11,0.33-0.26c0.04-0.18-0.08-0.36-0.26-0.4c-2.15-0.46-3.51-3.11-3.9-3.97c3.06-1.63,4.92-3.75,5.54-6.31c1.01-4.17-1.63-7.93-1.74-8.09c-0.11-0.15-0.32-0.18-0.47-0.08c-0.15,0.11-0.19,0.32-0.08,0.47c0.03,0.04,2.58,3.69,1.63,7.55c-0.59,2.43-2.44,4.46-5.47,6.01l-0.27,0.14l0.11,0.28c0.06,0.16,1.58,4.04,4.5,4.66C2359.34,780.34,2359.36,780.35,2359.38,780.35z"/></g></g></g></g><g><g><g><g><path class="st4" d="M2359.78,813.97v-10.45c0,0,17.67-1.04,28.51-7.87C2388.29,795.65,2373.57,809.79,2359.78,813.97z"/></g></g></g></g><g><g><g><g><path class="st22" d="M2379.85,762.73c0.17,0,0.33-0.06,0.46-0.19c0.27-0.26,0.27-0.68,0.02-0.94c-0.09-0.09-8.65-8.85-16.48-2.54c-0.29,0.23-0.33,0.65-0.1,0.94c0.23,0.29,0.65,0.33,0.94,0.1c6.87-5.53,14.36,2.1,14.68,2.42C2379.5,762.66,2379.68,762.73,2379.85,762.73z"/></g></g></g></g><g><g><g><g><path class="st22" d="M2356.63,761.28c0.19,0,0.37-0.08,0.51-0.23c0.24-0.28,0.21-0.7-0.07-0.94c-0.25-0.22-6.2-5.31-9.97-2.07c-0.28,0.24-0.31,0.66-0.07,0.94c0.24,0.28,0.66,0.31,0.94,0.07c2.9-2.48,8.17,2.02,8.23,2.07C2356.32,761.22,2356.48,761.28,2356.63,761.28z"/></g></g></g></g><g><g><g><g><path class="st18" d="M2348.99,766.46c0,1.03,0.83,1.86,1.86,1.86c1.03,0,1.86-0.83,1.86-1.86s-0.83-1.86-1.86-1.86C2349.82,764.59,2348.99,765.43,2348.99,766.46z"/></g></g></g></g><g><g><g><g><circle class="st18" cx="2367.33" cy="766.46" r="1.86"/></g></g></g></g><g><g><g><g><circle class="st3" cx="2399.57" cy="774.42" r="10.43"/></g></g></g></g><g><g><g><g><path class="st4" d="M2400.34,780.86c2.19,0,3.65-1.64,4.13-3.29c0.57-1.95-0.08-3.84-1.67-4.82c-2.25-1.4-4.3-0.58-5.41,0.12c0.45-1.11,1.13-1.92,2.04-2.42c2.04-1.12,4.57-0.3,4.59-0.29c0.18,0.06,0.36-0.04,0.42-0.21c0.06-0.17-0.04-0.36-0.21-0.42c-0.11-0.04-2.83-0.92-5.12,0.34c-1.33,0.73-2.23,2.02-2.68,3.83l-0.29,1.16l0.85-0.84c0.1-0.1,2.56-2.49,5.46-0.69c1.6,0.99,1.74,2.81,1.38,4.06c-0.38,1.31-1.54,2.83-3.55,2.81c-0.18,0-0.34,0.14-0.34,0.33c0,0.18,0.14,0.34,0.33,0.34C2400.3,780.86,2400.32,780.86,2400.34,780.86z"/></g></g></g></g></g><g><g><g><path class="st3" d="M2347.41,747.74c0,0,3.17-16.06,24.66-17.83c21.49-1.77,24.38,14.34,24.38,14.34l-24.52,4.97l-22.94-1.6L2347.41,747.74z"/></g></g></g><g><g><g><path class="st22" d="M2347.41,734.14c0,0,13.36,13.08,30.7,10.12c0,0,5.79,21.18,18.33,20.2c12.55-0.98,5.72-30.32,5.72-30.32s-23.46-9.55-24.94-9.55c-1.48,0-26.37-1.48-26.37-1.48L2347.41,734.14z"/></g></g></g><g><g><g><g><path class="st23" d="M2364.81,772.39c0.53,0,0.53-0.83,0-0.83C2364.28,771.56,2364.28,772.39,2364.81,772.39L2364.81,772.39z"/></g></g></g></g><g><g><g><g><path class="st23" d="M2367.33,773.88c0.53,0,0.53-0.83,0-0.83C2366.79,773.05,2366.79,773.88,2367.33,773.88L2367.33,773.88z"/></g></g></g></g><g><g><g><g><path class="st23" d="M2371.89,770.9c0.53,0,0.53-0.83,0-0.83C2371.36,770.07,2371.36,770.9,2371.89,770.9L2371.89,770.9z"/></g></g></g></g><g><g><g><g><path class="st23" d="M2375.8,773.88c0.53,0,0.53-0.83,0-0.83C2375.27,773.05,2375.27,773.88,2375.8,773.88L2375.8,773.88z"/></g></g></g></g><g><g><g><g><path class="st23" d="M2379.9,769.88c0.53,0,0.53-0.83,0-0.83C2379.37,769.05,2379.37,769.88,2379.9,769.88L2379.9,769.88z"/></g></g></g></g><g><g><g><g><path class="st23" d="M2381.39,775.84c0.53,0,0.53-0.83,0-0.83C2380.86,775.01,2380.86,775.84,2381.39,775.84L2381.39,775.84z"/></g></g></g></g><g><g><g><g><path class="st23" d="M2356.52,769.97c0.53,0,0.53-0.83,0-0.83C2355.99,769.14,2355.99,769.97,2356.52,769.97L2356.52,769.97z"/></g></g></g></g><g><g><g><g><path class="st23" d="M2353.45,773.32c0.53,0,0.53-0.83,0-0.83C2352.92,772.49,2352.92,773.32,2353.45,773.32L2353.45,773.32z"/></g></g></g></g><g><g><g><g><path class="st23" d="M2349.72,771.83c0.53,0,0.53-0.83,0-0.83C2349.19,771,2349.19,771.83,2349.72,771.83L2349.72,771.83z"/></g></g></g></g><g><g><g><g><path class="st23" d="M2349.44,777.7c0.53,0,0.53-0.83,0-0.83C2348.91,776.87,2348.91,777.7,2349.44,777.7L2349.44,777.7z"/></g></g></g></g><g><g><g><g><path class="st23" d="M2346.65,774.25c0.53,0,0.53-0.83,0-0.83C2346.12,773.43,2346.12,774.25,2346.65,774.25L2346.65,774.25z"/></g></g></g></g><g><g><g><g><path class="st23" d="M2347.3,769.13c0.53,0,0.53-0.83,0-0.83C2346.77,768.3,2346.77,769.13,2347.3,769.13L2347.3,769.13z"/></g></g></g></g><g><g><g><g><path class="st23" d="M2370.31,776.49c0.53,0,0.53-0.83,0-0.83C2369.78,775.66,2369.77,776.49,2370.31,776.49L2370.31,776.49z"/></g></g></g></g><g><path class="st3" d="M2269.88,916.98l-9.27,169.21c0,0,58.93-41.28,61.79-46.61c2.86-5.33,6.91-61.7,7.25-79.92c0.34-18.22-18.61-54.2-18.61-54.2L2269.88,916.98z"/></g><g><g><g><g><polygon class="st3" points="2377.23,1193.39 2365.85,1569.47 2316.44,1571.15 2267.57,1178.91 "/></g></g></g></g><g><g><g><g><polygon class="st3" points="2369.94,1193.39 2467.23,1569.47 2518.89,1573.45 2476.23,1178.91 "/></g></g></g></g><g><g><path class="st18" d="M2524.82,1237.72c-2.58-20.1-28.58-108.52-38.46-136.75c-9.88-28.23-32.76-74.42-32.76-74.42l-17.75-33.78l16.73-44.71l4.44,9.76c39.76-12.43,67.87-38.83,67.87-38.83l-6.4-9.03l-18.54-25.07l-19.43-24.22l-17.55-18.36l-20.15-9.73l-9.63-1.81c-0.49-0.18-0.99-0.32-1.51-0.38c-0.5-0.06-1-0.12-1.5-0.18l-12.22-2.29l-1.55,1c-13.45-1-26.66-1.36-30.89-1.46l0,0c-6.71-0.67-45.48-0.03-45.48-0.03l-0.13,0.09c-5.63,0.66-39.95,4.26-46.56,10.99c-1.78,1.81-11.02,19.71-20.61,56.78l-4.42,20.61l4.51,3.23l5.83,5.07l10.01,3.69l2.4,3.41l3.9,59.58v3.56l-5.24,9.41l-11.71,25.69l-6.92,18.32l-8.48,27.46l-4.3,18.35l-4.66,22.4l-3.87,19.27l-2.7,16.26l-2.09,18.1c0,0-1.86,10.89-1.86,11.2c0,0.31-1.4,17.5-1.4,17.5l-0.85,15.12l-1.42,23.81l0.74,18.66l-0.74,15.58l3.88,24.44c126.36,54.51,290.41-11.8,290.41-11.8L2524.82,1237.72z"/></g></g><g><g><g><g><g><g><path class="st8" d="M2450.81,852.23c-0.19,0-0.37-0.08-0.49-0.25c-5.93-7.9-15.61-11.11-15.71-11.14c-0.32-0.1-0.5-0.45-0.39-0.77c0.1-0.32,0.45-0.5,0.77-0.39c0.41,0.13,10.14,3.35,16.31,11.58c0.2,0.27,0.15,0.66-0.12,0.86C2451.07,852.19,2450.94,852.23,2450.81,852.23z"/></g></g></g></g></g><g><g><g><g><g><path class="st8" d="M2449.65,857.91c-0.19,0-0.37-0.08-0.49-0.25c-5.93-7.9-15.61-11.11-15.71-11.14c-0.32-0.1-0.5-0.45-0.39-0.77c0.1-0.32,0.45-0.5,0.77-0.39c0.41,0.13,10.15,3.35,16.31,11.58c0.2,0.27,0.15,0.66-0.12,0.86C2449.91,857.87,2449.78,857.91,2449.65,857.91z"/></g></g></g></g></g></g><g><g><path d="M2525.13,1240.4c0.07,0,0.14-0.01,0.22-0.02c0.6-0.12,0.99-0.7,0.87-1.3c-29.31-148.12-84.57-239.09-89.14-246.43l15.69-41.93l3.63,8.46l0.96-0.3c44.49-14.1,68.34-38.52,68.57-38.76l0.63-0.65l-0.52-0.75c-1.87-2.69-45.99-66.04-65.05-79.01c-19.17-13.05-50.32-13.37-51.64-13.37c0,0,0,0-0.01,0c-0.61,0-1.1,0.49-1.11,1.1c0,0.61,0.49,1.11,1.1,1.11c0.32,0,31.8,0.32,50.41,12.99c17.62,12,58.78,70.3,63.95,77.68c-4.02,3.88-26.73,24.57-66.05,37.24l-5.02-11.69l-18.01,48.13l0.3,0.47c0.58,0.91,58.78,92.78,89.13,246.13C2524.15,1240.04,2524.61,1240.4,2525.13,1240.4z"/></g></g><g><g><path d="M2457.02,958.93c0.13,0,0.26-0.02,0.39-0.07c0.57-0.22,0.86-0.86,0.64-1.43l-18.59-49.15c-0.22-0.57-0.85-0.86-1.43-0.64c-0.57,0.22-0.86,0.86-0.64,1.43l18.59,49.15C2456.15,958.66,2456.57,958.93,2457.02,958.93z"/></g></g><g><g><path d="M2419.99,995.57c0.04,0,0.08,0,0.12-0.01l15.86-1.68c0.61-0.06,1.05-0.61,0.99-1.22c-0.06-0.61-0.61-1.04-1.22-0.99l-15.86,1.68c-0.61,0.06-1.05,0.61-0.99,1.22C2418.95,995.14,2419.43,995.57,2419.99,995.57z"/></g></g><g><g><path d="M2241.7,1296.25c0.02,0,0.05,0,0.07,0c0.61-0.04,1.07-0.56,1.04-1.18c-6.33-101.78,8.45-177.93,21.96-223.9c14.64-49.8,30.98-75.87,31.14-76.12l0.2-0.31l-4.78-64.67l-0.16-0.24c-20.41-31.02,3.21-55.46,4.22-56.49c0.43-0.43,0.43-1.14-0.01-1.57c-0.44-0.43-1.14-0.43-1.57,0.01c-0.26,0.26-25.78,26.59-4.66,59.02l4.68,63.37c-1.91,3.13-17.31,29.16-31.17,76.26c-13.58,46.15-28.43,122.61-22.08,224.77C2240.63,1295.8,2241.12,1296.25,2241.7,1296.25z"/></g></g><g><g><path d="M2308.83,930.77h61.12c0.61,0,1.11-0.5,1.11-1.11c0-0.61-0.5-1.11-1.11-1.11h-61.12c-0.61,0-1.11,0.5-1.11,1.11C2307.72,930.27,2308.22,930.77,2308.83,930.77z"/></g></g><g><g><path d="M2317.66,941.44h40.5c0.61,0,1.11-0.5,1.11-1.11c0-0.61-0.5-1.11-1.11-1.11h-40.5c-0.61,0-1.11,0.5-1.11,1.11C2316.55,940.95,2317.05,941.44,2317.66,941.44z"/></g></g><g><g><g><g><g><g><g><g><path class="st18" d="M2569.46,1590.32h-102.23v-20.85c0,0,7.44-10.01,18.76-4.9c0,0,16.76,12.3,31.86-2.4l37.85,16.47C2555.69,1578.64,2569.46,1583.23,2569.46,1590.32z"/></g></g></g></g></g></g></g><g><g><g><g><g><g><g><path class="st20" d="M2467.23,1597.62h104.81c1.03,0,1.86-0.83,1.86-1.86v-3.57c0-1.03-0.83-1.86-1.86-1.86h-104.81V1597.62z"/></g></g></g></g></g></g></g></g><g><g><g><g><g><g><g><g><path class="st18" d="M2263.62,1590.32h102.23v-20.85c0,0-7.44-10.01-18.76-4.9c0,0-16.76,12.3-31.86-2.4l-37.85,16.47C2277.39,1578.64,2263.62,1583.23,2263.62,1590.32z"/></g></g></g></g></g></g></g><g><g><g><g><g><g><g><path class="st20" d="M2365.85,1597.62h-104.81c-1.03,0-1.86-0.83-1.86-1.86v-3.57c0-1.03,0.83-1.86,1.86-1.86h104.81V1597.62z"/></g></g></g></g></g></g></g></g><g><g><path d="M2288.67,929.02c0.54,0,1.01-0.39,1.09-0.94c0.09-0.6-0.32-1.17-0.93-1.26c-10.27-1.58-17.69-9.83-19.31-11.78c0.44-1.73,1.03-4.2,1.75-7.23c4.73-19.97,15.8-66.73,27.54-70.86c14.01-4.93,37.53-7.86,37.76-7.89c0.61-0.07,1.04-0.63,0.96-1.23c-0.07-0.61-0.63-1.03-1.23-0.96c-0.24,0.03-23.99,2.98-38.23,8c-12.88,4.53-23.74,50.4-28.96,72.44c-0.79,3.36-1.42,6.01-1.88,7.72l-0.14,0.52l0.33,0.43c0.34,0.45,8.59,11.11,21.07,13.03C2288.56,929.01,2288.61,929.02,2288.67,929.02z"/></g></g><g><g><g><g><g><path class="st9" d="M2356.09,784.97c0.19-0.07,12.48-2.55,12.48-2.55s-0.64,5.38-5.21,6.31C2358.79,789.66,2356.09,784.97,2356.09,784.97z"/></g></g></g></g></g><g><g><g><path class="st4" d="M2471.45,1084.13c0,0-7.04-2.14-13.33-5.62c-6.29-3.48-6.55,2.05-5.44,4.21c1.11,2.16,8.04,9.39,8.04,9.39L2471.45,1084.13z"/></g></g><g><g><path class="st3" d="M2476.08,1082.94c-0.1,0.19-0.21,0.42-0.31,0.59c-10.21,1.44-22.08,3.11-25,3.5c-5.36,0.72-22.54,9.12-27.37,14.54c-8.75,9.82-2.51,9.47-2.51,9.47c-8.14,11.06,1.92,9.25,1.92,9.25c-8.16,9.27,1.64,9.4,1.64,9.4c-3.87,5.42-2.54,7.55-0.76,8.39c1.3,0.61,2.83,0.5,4.09-0.18c2.34-1.27,7.46-4.07,12.79-7.1l0,0c0,0,17.28-5.66,48.74-12.04l12.22-3.75L2476.08,1082.94z"/></g></g><g><g><g><g><g><g><g><g><g><g><path class="st4" d="M2434.81,1121.17c0.27-0.06,0.55,0.06,0.7,0.31c0.18,0.31,0.07,0.71-0.24,0.89c-4.37,2.49-10.31,7.76-10.37,7.81c-0.27,0.24-0.68,0.21-0.92-0.05c-0.24-0.27-0.21-0.68,0.05-0.92c0.25-0.22,6.1-5.41,10.59-7.97C2434.68,1121.21,2434.75,1121.18,2434.81,1121.17z"/></g></g></g></g></g></g></g></g></g><g><g><g><g><g><g><g><g><g><path class="st4" d="M2433.13,1113.11c0.3-0.06,0.61,0.1,0.73,0.39c0.14,0.33-0.02,0.71-0.36,0.85c-5.67,2.32-10.22,6.39-10.26,6.43c-0.27,0.24-0.68,0.22-0.92-0.05c-0.24-0.27-0.22-0.68,0.05-0.92c0.19-0.17,4.76-4.26,10.64-6.67C2433.06,1113.13,2433.1,1113.12,2433.13,1113.11z"/></g></g></g></g></g></g></g></g></g><g><g><g><g><g><g><g><g><g><path class="st4" d="M2429.81,1104.21c0.29-0.06,0.6,0.09,0.73,0.37c0.15,0.33,0,0.71-0.33,0.86c-4.83,2.15-8.82,6.03-8.86,6.07c-0.26,0.25-0.67,0.25-0.92-0.01c-0.25-0.26-0.25-0.67,0.01-0.92c0.17-0.17,4.19-4.08,9.24-6.33C2429.72,1104.23,2429.76,1104.22,2429.81,1104.21z"/></g></g></g></g></g></g></g></g></g></g></g><g><g><path class="st3" d="M2558.42,999.86c0.15-10.35-26.22-55.8-36.82-75.66c-16.48,14.36-40.27,26-51.06,30c10.5,16.75,22.52,38.61,27.5,46.4c5.17,8.08-15.17,72.14-22.36,84.42l25.87,30C2519.48,1098.54,2557.9,1035.65,2558.42,999.86z"/></g></g></g><g><g><g><g><path d="M479.54,840.37c-0.58-2.93,0.65-5.78,2.89-7.45c-1.06-1.02-1.84-2.36-2.15-3.92c-0.59-2.97,0.68-5.86,2.98-7.52c-1.13-1.04-1.96-2.41-2.28-4.02c-0.55-2.77,0.53-5.47,2.56-7.17c0.13-3.16,2.25-5.93,5.36-6.84c-0.12-0.34-0.24-0.67-0.32-1.04c-0.73-3.67,1.38-7.23,4.8-8.46c-0.01-0.04-0.03-0.07-0.03-0.11c-0.81-4.05,1.82-7.99,5.87-8.79c0.71-0.14,1.41-0.14,2.1-0.08c0.32-1.02,0.85-1.96,1.56-2.75c0.29-3.22,2.62-6,5.95-6.67c0.35-0.07,0.7-0.08,1.05-0.1c0.84-2.43,2.88-4.37,5.58-4.9c1.1-0.22,2.19-0.16,3.22,0.09c1.01-1.93,2.83-3.41,5.13-3.87c1.29-0.26,2.56-0.13,3.73,0.25c0.39-0.15,0.78-0.28,1.19-0.37c1.24-0.25,2.46-0.14,3.6,0.2c1.06-1.31,2.54-2.28,4.32-2.64c1.99-0.4,3.94,0.05,5.52,1.07c1.57-0.23,3.1,0.05,4.43,0.73c0.8-0.54,1.71-0.93,2.71-1.13c4.05-0.81,7.99,1.82,8.79,5.87c2.98-0.59,5.89,0.69,7.55,3.01c2.19-0.21,4.29,0.54,5.82,1.97c0.06-0.01,0.11-0.04,0.17-0.05c3.78-0.75,7.42,1.51,8.55,5.1c1.71,1.05,3,2.77,3.43,4.89c0.17,0.87,0.16,1.72,0.04,2.54c1.41,1.06,2.47,2.6,2.85,4.46c2.36,0.83,4.24,2.8,4.82,5.41c2.47,0.82,4.46,2.87,5,5.61c0.2,1.01,0.19,2.02-0.01,2.97c1.89,1.02,3.35,2.82,3.8,5.09c0.44,2.22-0.18,4.39-1.47,6.05c1.2,1.05,2.1,2.47,2.44,4.15c0.44,2.2-0.17,4.36-1.44,6.01c0.55,2.93-0.69,5.77-2.96,7.42c0.46,0.74,0.82,1.56,1,2.47c0.53,2.67-0.45,5.28-2.34,6.98c0.03,0.12,0.08,0.23,0.11,0.35c0.67,3.35-1.04,6.6-3.94,8.08c-0.39,2.15-1.72,4.01-3.61,5.11c-0.06,3.44-2.49,6.5-6.01,7.2c-0.15,0.03-0.3,0.02-0.45,0.04c-1.07,1.51-2.68,2.63-4.63,3.02c-0.65,0.13-1.29,0.14-1.92,0.1c-0.13,3.38-2.53,6.35-5.99,7.04c-2.01,0.4-3.98-0.05-5.56-1.09c-4.52,2.38-9.45,4.17-14.72,5.22c-4.04,0.8-8.07,1.12-12.03,1.02c-0.71,2.67-2.85,4.85-5.74,5.43c-1.77,0.35-3.49,0.02-4.97-0.77c-0.22,0.07-0.43,0.16-0.66,0.2c-2.73,0.54-5.39-0.5-7.09-2.46c-0.32,0.11-0.63,0.23-0.96,0.3c-3.01,0.6-5.94-0.7-7.59-3.07c-0.2,0.06-0.39,0.14-0.61,0.19c-4.05,0.81-7.99-1.82-8.79-5.87c0-0.02,0-0.04-0.01-0.06c-2.11-0.97-3.75-2.88-4.23-5.33c-0.37-1.86,0.01-3.68,0.89-5.2c-2.97-0.5-5.48-2.76-6.1-5.89c-0.1-0.5-0.14-0.99-0.14-1.48c-3.29-0.22-6.17-2.58-6.84-5.97c-0.35-1.76-0.02-3.49,0.76-4.96C482.07,845.15,480.09,843.1,479.54,840.37z"/></g></g></g><g><g><g><path d="M509.33,834.62c0-2.98,1.76-5.54,4.29-6.74c-0.84-1.21-1.35-2.68-1.35-4.26c0-3.03,1.81-5.62,4.39-6.79c-0.9-1.24-1.45-2.74-1.45-4.39c0-2.83,1.59-5.26,3.9-6.53c0.74-3.07,3.37-5.37,6.59-5.66c-0.05-0.36-0.11-0.71-0.11-1.08c0-3.75,2.76-6.82,6.36-7.36c0-0.04-0.01-0.07-0.01-0.11c0-4.13,3.35-7.48,7.48-7.48c0.72,0,1.41,0.14,2.07,0.33c0.51-0.94,1.21-1.75,2.06-2.39c0.91-3.1,3.75-5.38,7.14-5.38c0.36,0,0.7,0.06,1.05,0.11c1.3-2.22,3.68-3.72,6.43-3.72c1.13,0,2.18,0.27,3.14,0.71c1.37-1.69,3.44-2.8,5.79-2.8c1.32,0,2.54,0.37,3.61,0.97c0.41-0.07,0.82-0.13,1.24-0.13c1.27,0,2.44,0.34,3.49,0.9c1.29-1.07,2.93-1.75,4.75-1.75c2.03,0,3.86,0.81,5.21,2.12c1.59,0.08,3.03,0.66,4.2,1.58c0.89-0.37,1.86-0.58,2.88-0.58c4.13,0,7.48,3.35,7.48,7.48c3.04,0,5.65,1.82,6.81,4.43c2.19,0.22,4.1,1.37,5.32,3.07c0.06,0,0.12-0.02,0.18-0.02c3.85,0,6.99,2.92,7.4,6.67c1.47,1.37,2.41,3.3,2.41,5.47c0,0.88-0.18,1.72-0.46,2.5c1.18,1.31,1.92,3.03,1.93,4.94c2.15,1.28,3.61,3.58,3.67,6.24c2.27,1.28,3.81,3.69,3.81,6.48c0,1.03-0.21,2.01-0.59,2.91c1.66,1.37,2.73,3.42,2.73,5.73c0,2.27-1.03,4.27-2.62,5.64c0.98,1.26,1.58,2.83,1.58,4.55c0,2.25-1.01,4.24-2.58,5.61c-0.03,2.98-1.81,5.52-4.35,6.7c0.31,0.82,0.5,1.69,0.5,2.61c0,2.73-1.47,5.09-3.65,6.39c0.01,0.12,0.04,0.24,0.04,0.37c0,3.42-2.31,6.27-5.44,7.16c-0.8,2.03-2.46,3.6-4.54,4.31c-0.73,3.37-3.72,5.89-7.3,5.89c-0.15,0-0.3-0.04-0.45-0.05c-1.34,1.27-3.14,2.06-5.13,2.06c-0.66,0-1.29-0.11-1.9-0.27c-0.79,3.29-3.73,5.74-7.25,5.74c-2.04,0-3.89-0.82-5.24-2.15c-4.9,1.46-10.08,2.25-15.45,2.25c-4.12,0-8.13-0.48-11.99-1.35c-1.22,2.48-3.74,4.2-6.69,4.2c-1.8,0-3.43-0.66-4.72-1.72c-0.23,0.02-0.45,0.07-0.69,0.07c-2.79,0-5.19-1.54-6.47-3.8c-0.33,0.05-0.66,0.1-1,0.1c-3.07,0-5.69-1.85-6.85-4.49c-0.21,0.02-0.41,0.06-0.63,0.06c-4.13,0-7.48-3.35-7.48-7.48c0-0.02,0.01-0.04,0.01-0.06c-1.88-1.36-3.11-3.55-3.11-6.05c0-1.9,0.73-3.61,1.89-4.92c-2.82-1.07-4.83-3.78-4.83-6.97c0-0.51,0.05-1,0.15-1.48c-3.19-0.86-5.54-3.74-5.54-7.19c0-1.8,0.66-3.42,1.72-4.71C510.87,839.8,509.33,837.4,509.33,834.62z"/></g></g></g><g><g><g><g><g><g><path class="st24" d="M273.69,1065.63c-10.68-6.64-1.16-9.65-1.16-9.65c-5.37-4.15-4.7-6.62-3.2-7.96c1.09-0.98,2.61-1.32,4.05-1.02c4.56,0.94,18.46,3.87,27.05,6.22c5.6-1.35,2.19-10.6-1.17-15.07c-1.73-2.3-2.52-6.45,4.34-3.29c5.6,2.59,15.04,12.61,15.04,12.61l31.07-8.33l2.6,44.31c0,0-36.13,5.54-41.57,6.42c-5.44,0.87-24.67-2.27-30.96-6.13c-11.43-7.01-5.23-8.5-5.23-8.5C263.35,1066.83,273.69,1065.63,273.69,1065.63z"/></g></g></g></g></g></g><g><g><g><g><path class="st25" d="M284.74,1061.12c0.07-0.08,0.13-0.18,0.16-0.29c0.11-0.38-0.12-0.78-0.5-0.88c-4.8-1.32-11.77-4.89-12.07-5.04c-0.35-0.18-0.79-0.04-0.97,0.31c-0.18,0.35-0.04,0.79,0.31,0.97c0.3,0.15,7.4,3.79,12.34,5.15C284.29,1061.41,284.57,1061.31,284.74,1061.12z"/></g></g></g><g><g><g><path class="st25" d="M285.53,1070.58c0.08-0.09,0.15-0.21,0.17-0.34c0.08-0.39-0.17-0.77-0.56-0.85c-5.84-1.19-11.04-4.27-11.26-4.39l-0.74,1.23c0.57,0.34,5.74,3.35,11.71,4.57C285.11,1070.85,285.36,1070.76,285.53,1070.58z"/></g></g></g><g><g><g><path class="st25" d="M285.74,1079.67c0.09-0.1,0.15-0.22,0.18-0.36c0.07-0.39-0.2-0.76-0.59-0.83c-5.48-0.93-10.42-3.8-10.47-3.83c-0.34-0.2-0.8-0.09-0.98,0.26c-0.2,0.34-0.09,0.78,0.26,0.98c0.05,0.03,5.22,3.03,10.96,4C285.34,1079.94,285.58,1079.84,285.74,1079.67z"/></g></g></g></g><g><g><path class="st24" d="M318.63,1047.46l89.84-30.88L455.9,897.4c13.45,8.3,5.53,89.85,30.33,93.46c-6.88,21.98-23.75,71.2-40.23,83.18c-21.39,15.55-137.04,15.95-137.04,15.95L318.63,1047.46z"/></g></g><g><g><g><path class="st7" d="M448.47,859.28c3.92-10.4,16.5-18.64,35.15-20.97v0c0,0,0,0,0.01,0c0.85-0.11,1.72-0.2,2.59-0.3c4.82,17.25,17.41,47.8,46.34,48.51c34.82,0.85,63.62-37.9,70.87-48.55c4.21,0.3,8.8,0.74,13.6,1.35c9.04,0.31,66.88,4.22,71.27,54.15c4.49,51.08-5.39,128.6-5.39,128.6s-19.64-0.9-44.02-10.71l-4.37,29.3l4.41,65.81c0,0-124.09,43.3-203.86-9.65c0,0,3.94-74.87,7.33-141.08C444.82,908.3,446.46,864.63,448.47,859.28z"/></g></g></g><g><g><g><g><g><polygon class="st24" points="521.5,1283.05 512.86,1570.52 456.49,1570.52 432.23,1283.05 "/></g></g></g></g></g><g><g><g><g><g><polygon class="st24" points="614.33,1283.05 605.69,1570.52 549.32,1570.52 525.07,1283.05 "/></g></g></g></g></g><g><g><g><g><g><g><path class="st16" d="M495.56,1596.1l-78.18-1.23c-0.71-0.11-1.28-0.24-1.7-0.38c-7.33-2.37-4.85-7.01-4.85-7.01l44.31-28.88l20.19,9.13c0,0,33.1,5.53,37.83-3.86l-0.67,24.55C512.49,1588.41,514.9,1596.28,495.56,1596.1z"/></g></g></g></g></g></g><g><g><g><g><g><g><path class="st7" d="M588.39,1596.1l-78.18-1.23c-0.7-0.11-1.28-0.24-1.7-0.38c-7.33-2.37-4.85-7.01-4.85-7.01l44.31-28.88l20.19,9.13c0,0,33.1,5.53,37.83-3.86l-0.67,24.55C605.32,1588.41,607.73,1596.28,588.39,1596.1z"/></g></g></g></g></g></g><g><g><g><g><path class="st7" d="M435.96,1079.71c0,0-11.61,123.43-31.11,307.61c0,0,60.34,18.16,161.76,18.6c67.92,0.29,113.55-18,113.55-18s-9.82-224.36-46.27-294.45c0,0-100.64-18.16-102.91-18.16C528.71,1075.31,435.96,1079.71,435.96,1079.71z"/></g></g></g></g><g><g><g><g><g><path d="M625.33,1196.34c0.41,0,0.8-0.21,1.02-0.59l6.67-11.65c0.32-0.56,0.13-1.28-0.43-1.6c-0.56-0.32-1.28-0.13-1.6,0.43l-6.67,11.65c-0.32,0.56-0.13,1.28,0.43,1.6C624.93,1196.29,625.13,1196.34,625.33,1196.34z"/></g></g></g></g><g><g><g><g><path d="M625.89,1203.14c0.39,0,0.77-0.19,0.99-0.55l7.45-11.79c0.35-0.55,0.18-1.27-0.36-1.62c-0.55-0.35-1.27-0.18-1.62,0.36l-7.45,11.79c-0.35,0.55-0.18,1.27,0.36,1.62C625.46,1203.08,625.68,1203.14,625.89,1203.14z"/></g></g></g></g></g><g><g><g><path class="st7" d="M450.9,878.43c-1.65,1.47-6.07,9.38-6.07,9.38l-8.27,16.73l-3.58,14.97l-1.15,9.38l1.99,16.36l5.06,7.4l4.86,4.18l7.17-0.13c0,0,13.42-58.61,12.87-60.08C463.22,895.16,450.9,878.43,450.9,878.43z"/></g></g></g><g><g><g><g><path class="st8" d="M682.91,1022.69c0.33,0,0.6-0.26,0.62-0.59c0.02-0.34-0.24-0.64-0.59-0.66c-39.86-2.22-77.6-29.7-81.5-32.63l26.28-99.05c0.09-0.33-0.11-0.67-0.44-0.76c-0.33-0.09-0.68,0.11-0.76,0.44l-26.5,99.86l0.33,0.25c0.4,0.31,40.25,30.78,82.53,33.13C682.89,1022.69,682.9,1022.69,682.91,1022.69z"/></g></g></g></g><g><g><g><g><path class="st8" d="M618.16,924.01c0.04,0,0.08,0,0.12-0.01c0.34-0.07,0.56-0.39,0.5-0.73l-4.63-24.2c-0.06-0.34-0.39-0.56-0.73-0.5c-0.34,0.07-0.56,0.39-0.5,0.73l4.63,24.2C617.61,923.8,617.87,924.01,618.16,924.01z"/></g></g></g></g><g><g><g><g><g><path class="st8" d="M677.1,883.51c0.02,0,0.04,0,0.07,0c0.34-0.04,0.59-0.34,0.55-0.69c-0.05-0.44-1.22-10.8-8.11-18.66c-0.23-0.26-0.62-0.29-0.88-0.06c-0.26,0.23-0.28,0.62-0.06,0.88c6.63,7.55,7.8,17.86,7.81,17.97C676.51,883.28,676.78,883.51,677.1,883.51z"/></g></g></g></g><g><g><g><g><path class="st8" d="M671.2,883.48c0.02,0,0.04,0,0.07,0c0.34-0.04,0.59-0.34,0.55-0.69c-0.05-0.44-1.22-10.8-8.11-18.66c-0.23-0.26-0.62-0.28-0.88-0.06c-0.26,0.23-0.28,0.62-0.06,0.88c6.64,7.56,7.8,17.86,7.81,17.97C670.62,883.24,670.89,883.48,671.2,883.48z"/></g></g></g></g></g><g><g><g><path class="st24" d="M603.43,837.97L603.43,837.97c-7.25,10.65-36.05,49.4-70.87,48.55c-28.9-0.7-41.51-31.21-46.33-48.46C529.77,833.91,603.43,837.97,603.43,837.97z"/></g></g></g><g><g><g><path d="M491.47,768.28c0-2.98,1.76-5.54,4.29-6.74c-0.84-1.21-1.35-2.68-1.35-4.26c0-3.03,1.81-5.62,4.39-6.79c-0.9-1.24-1.45-2.74-1.45-4.39c0-2.83,1.59-5.26,3.9-6.53c0.74-3.07,3.37-5.37,6.59-5.66c-0.05-0.36-0.11-0.71-0.11-1.08c0-3.75,2.76-6.82,6.36-7.36c0-0.04-0.01-0.07-0.01-0.11c0-4.13,3.35-7.48,7.48-7.48c0.72,0,1.41,0.14,2.07,0.33c0.51-0.94,1.21-1.75,2.06-2.39c0.91-3.1,3.75-5.38,7.14-5.38c0.36,0,0.7,0.06,1.05,0.11c1.3-2.22,3.68-3.72,6.43-3.72c1.13,0,2.18,0.27,3.14,0.71c1.37-1.69,3.44-2.8,5.79-2.8c1.32,0,2.54,0.37,3.61,0.97c0.41-0.07,0.82-0.13,1.24-0.13c1.27,0,2.44,0.34,3.49,0.9c1.29-1.07,2.93-1.75,4.75-1.75c2.03,0,3.86,0.81,5.21,2.12c1.59,0.08,3.03,0.66,4.2,1.58c0.89-0.37,1.86-0.58,2.88-0.58c4.13,0,7.48,3.35,7.48,7.48c3.04,0,5.65,1.82,6.81,4.43c2.19,0.22,4.1,1.37,5.32,3.07c0.06,0,0.12-0.02,0.18-0.02c3.85,0,6.99,2.92,7.4,6.67c1.47,1.37,2.41,3.3,2.41,5.47c0,0.88-0.18,1.72-0.46,2.5c1.18,1.31,1.92,3.03,1.93,4.94c2.15,1.28,3.61,3.58,3.67,6.24c2.27,1.28,3.81,3.69,3.81,6.48c0,1.03-0.21,2.01-0.59,2.91c1.66,1.37,2.73,3.42,2.73,5.73c0,2.27-1.03,4.27-2.62,5.64c0.98,1.26,1.58,2.83,1.58,4.55c0,2.25-1.01,4.24-2.58,5.61c-0.03,2.98-1.81,5.52-4.35,6.7c0.31,0.82,0.5,1.69,0.5,2.61c0,2.73-1.47,5.09-3.65,6.39c0.01,0.12,0.04,0.24,0.04,0.37c0,3.42-2.31,6.27-5.44,7.16c-0.8,2.03-2.46,3.6-4.54,4.31c-0.73,3.37-3.72,5.89-7.3,5.89c-0.15,0-0.3-0.04-0.45-0.05c-1.34,1.27-3.14,2.06-5.13,2.06c-0.66,0-1.29-0.11-1.9-0.27c-0.79,3.29-3.73,5.74-7.25,5.74c-2.04,0-3.89-0.82-5.24-2.15c-4.9,1.46-10.08,2.25-15.45,2.25c-4.12,0-8.13-0.48-11.99-1.35c-1.22,2.48-3.74,4.2-6.69,4.2c-1.8,0-3.43-0.66-4.72-1.72c-0.23,0.02-0.45,0.07-0.69,0.07c-2.79,0-5.19-1.54-6.47-3.8c-0.33,0.05-0.66,0.1-1,0.1c-3.07,0-5.69-1.85-6.85-4.49c-0.21,0.02-0.41,0.06-0.63,0.06c-4.13,0-7.48-3.35-7.48-7.48c0-0.02,0.01-0.04,0.01-0.06c-1.88-1.36-3.11-3.55-3.11-6.05c0-1.9,0.73-3.61,1.89-4.92c-2.82-1.07-4.83-3.78-4.83-6.97c0-0.51,0.05-1,0.15-1.48c-3.19-0.86-5.54-3.74-5.54-7.19c0-1.8,0.66-3.42,1.72-4.71C493.01,773.47,491.47,771.07,491.47,768.28z"/></g></g></g><g><g><g><g><g><g><path class="st24" d="M526.47,745.64c0,0-9.81,50.84-3.52,60.26c0,0,3.05,5,11.03,5.62l-2.01,30.05l36.36-2.47l5.15-85.5c0,0-9.33-21.63-9.39-20.75C564.04,733.72,526.47,745.64,526.47,745.64z"/></g></g></g></g></g></g><g><g><g><g><g><g><path class="st25" d="M535.51,788.86c0.11,0.01,0.21-0.09,0.24-0.24c0.04-0.17-0.03-0.35-0.15-0.4c-1.47-0.54-2.25-3.19-2.47-4.05c2.22-1.47,3.64-3.47,4.22-5.94c0.95-4.03-0.66-7.83-0.73-7.99c-0.07-0.15-0.21-0.19-0.32-0.1c-0.11,0.1-0.15,0.3-0.08,0.45c0.02,0.04,1.57,3.71,0.69,7.46c-0.56,2.36-1.95,4.26-4.15,5.65l-0.19,0.12l0.06,0.28c0.03,0.16,0.86,4.02,2.85,4.75C535.48,788.85,535.5,788.85,535.51,788.86z"/></g></g></g></g></g></g><g><g><g><g><g><g><path class="st25" d="M533.37,821.75l0.62-10.23c0,0,17.35,0.02,28.36-6.02C562.34,805.5,547.11,818.47,533.37,821.75z"/></g></g></g></g></g></g><g><g><g><g><g><g><path d="M556.03,772.8c0.16,0.01,0.33-0.04,0.46-0.16c0.28-0.23,0.31-0.65,0.07-0.92c-0.08-0.09-7.94-9.17-15.97-3.46c-0.29,0.21-0.36,0.62-0.15,0.91c0.21,0.29,0.62,0.36,0.91,0.15c7.05-5.01,13.93,2.9,14.22,3.24C555.69,772.71,555.86,772.79,556.03,772.8z"/></g></g></g></g></g></g><g><g><g><g><g><g><path d="M533.39,770c0.18,0.01,0.37-0.05,0.51-0.2c0.25-0.26,0.25-0.67-0.01-0.93c-0.23-0.23-5.75-5.56-9.63-2.61c-0.29,0.22-0.34,0.63-0.13,0.92c0.22,0.29,0.63,0.35,0.92,0.13c2.98-2.26,7.88,2.46,7.93,2.51C533.09,769.93,533.24,769.99,533.39,770z"/></g></g></g></g></g></g><g><g><g><g><g><g><path d="M542.74,775.65c-0.06,1.01,0.71,1.87,1.71,1.93c1.01,0.06,1.87-0.71,1.93-1.71c0.06-1.01-0.71-1.87-1.71-1.93C543.66,773.88,542.8,774.64,542.74,775.65z"/></g></g></g></g></g></g><g><g><g><g><g><g><path d="M525.61,774.62c-0.06,1.01,0.71,1.87,1.71,1.93c1.01,0.06,1.87-0.71,1.93-1.71c0.06-1.01-0.71-1.87-1.71-1.93C526.53,772.85,525.67,773.61,525.61,774.62z"/></g></g></g></g></g></g><g><g><g><g><g><g><path class="st9" d="M549.2,788.82c-0.2,0.04-12.2,4.39-12.2,4.39s3.41,4.34,7.88,2.73C549.33,794.34,549.2,788.82,549.2,788.82z"/></g></g></g></g></g></g><g><g><g><g><g><g><g><path class="st24" d="M564.42,784.78c-0.34,5.64,3.96,10.48,9.59,10.82c5.64,0.34,10.48-3.96,10.82-9.59c0.34-5.64-3.96-10.48-9.59-10.82C569.61,774.84,564.76,779.14,564.42,784.78z"/></g></g></g></g></g></g><g><g><g><g><g><g><path class="st25" d="M575.01,791.74c2.14,0.13,3.67-1.39,4.24-2.97c0.67-1.87,0.14-3.76-1.35-4.81c-2.12-1.5-4.17-0.82-5.3-0.2c0.5-1.06,1.22-1.81,2.14-2.25c2.07-0.98,4.49-0.03,4.51-0.02c0.17,0.07,0.36-0.01,0.43-0.18c0.07-0.17-0.01-0.36-0.18-0.43c-0.11-0.04-2.71-1.07-5.03,0.03c-1.34,0.63-2.3,1.84-2.85,3.59l-0.35,1.12l0.88-0.78c0.11-0.09,2.65-2.29,5.39-0.35c1.51,1.07,1.54,2.85,1.11,4.06c-0.45,1.26-1.68,2.68-3.63,2.54c-0.18-0.02-0.34,0.12-0.35,0.3c-0.01,0.18,0.12,0.34,0.3,0.35C574.97,791.73,574.99,791.73,575.01,791.74z"/></g></g></g></g></g></g></g><g><g><g><path d="M568.38,773.94c0,1.59,1.29,2.87,2.87,2.87s2.87-1.29,2.87-2.87c0-1.59-1.29-2.87-2.87-2.87S568.38,772.35,568.38,773.94z"/></g></g></g><g><g><g><path d="M565.87,769c0,2.1,1.7,3.8,3.8,3.8c2.1,0,3.8-1.7,3.8-3.8c0-2.1-1.7-3.8-3.8-3.8C567.58,765.2,565.87,766.9,565.87,769z"/></g></g></g><g><g><g><path d="M562.98,755.15c0,2.1,1.7,3.8,3.8,3.8c2.1,0,3.8-1.7,3.8-3.8c0-2.1-1.7-3.8-3.8-3.8C564.69,751.35,562.98,753.05,562.98,755.15z"/></g></g></g><g><g><g><path d="M543.36,747.8c0,2.1,1.7,3.8,3.8,3.8c2.1,0,3.8-1.7,3.8-3.8s-1.7-3.8-3.8-3.8C545.06,744,543.36,745.7,543.36,747.8z"/></g></g></g><g><g><g><path d="M566.78,758.08c0,4.03,3.27,7.3,7.3,7.3c4.03,0,7.3-3.27,7.3-7.3s-3.27-7.3-7.3-7.3C570.06,750.77,566.78,754.04,566.78,758.08z"/></g></g></g><g><g><g><ellipse transform="matrix(0.7071 -0.7071 0.7071 0.7071 -370.7378 628.3433)" cx="573.11" cy="761.69" rx="7.3" ry="7.3"/></g></g></g><g><g><g><circle cx="566.49" cy="749.25" r="7.3"/></g></g></g><g><g><g><circle cx="555.44" cy="747.08" r="7.3"/></g></g></g><g><g><g><ellipse transform="matrix(0.7071 -0.7071 0.7071 0.7071 -365.1394 602.3712)" cx="544.56" cy="741.95" rx="7.3" ry="7.3"/></g></g></g><g><g><g><circle cx="557.7" cy="746.59" r="7.3"/></g></g></g><g><g><g><circle cx="537.94" cy="747.08" r="7.3"/></g></g></g><g><g><g><circle cx="529.04" cy="746.59" r="7.3"/></g></g></g><g><g><g><ellipse transform="matrix(0.9871 -0.1598 0.1598 0.9871 -109.8735 99.5034)" cx="563.67" cy="732.82" rx="7.3" ry="7.3"/></g></g></g><g><g><g><ellipse transform="matrix(0.6401 -0.7683 0.7683 0.6401 -364.1497 702.9135)" cx="568.17" cy="740.13" rx="7.3" ry="7.3"/></g></g></g><g><g><g><ellipse transform="matrix(0.9731 -0.2305 0.2305 0.9731 -154.9722 146.6863)" cx="550.4" cy="736.7" rx="7.3" ry="7.3"/></g></g></g><g><g><g><circle cx="557.7" cy="738.17" r="7.3"/></g></g></g><g><g><g><ellipse transform="matrix(0.7071 -0.7071 0.7071 0.7071 -347.7097 611.5938)" cx="564.4" cy="725.52" rx="7.3" ry="7.3"/></g></g></g><g><g><g><path class="st8" d="M508.64,960.54c0.43,0,0.8-0.34,0.83-0.78c0.03-0.46-0.32-0.85-0.78-0.88l-65.42-3.92c-0.49-0.03-0.85,0.32-0.88,0.78c-0.03,0.46,0.32,0.85,0.78,0.88l65.42,3.92C508.61,960.54,508.63,960.54,508.64,960.54z"/></g></g></g><g><g><g><path class="st8" d="M508.64,973.47c0.43,0,0.8-0.34,0.83-0.78c0.03-0.46-0.32-0.85-0.78-0.88l-51.43-3.08c-0.51-0.04-0.85,0.32-0.88,0.78c-0.03,0.46,0.32,0.85,0.78,0.88l51.44,3.08C508.61,973.47,508.63,973.47,508.64,973.47z"/></g></g></g><g><g><g><path class="st25" d="M609.53,1058.79c0.01-0.01,0.01-0.02,0.02-0.02c0.25-0.3,0.21-0.76-0.09-1.01l-12.83-10.64c-0.3-0.25-0.76-0.28-1.01,0.1c-0.25,0.3-0.21,0.76,0.1,1.01l12.83,10.64C608.83,1059.11,609.27,1059.08,609.53,1058.79z"/></g></g></g><g><g><path d="M561.84,1406.87c81.68,0,118.22-18.05,118.66-18.27l0.43-0.22l-0.02-0.48c-6.59-185.14-41.39-287.58-41.74-288.59l-1.43,0.49c0.35,1.01,35.01,103.09,41.64,287.65c-5.38,2.5-60.96,26.57-181.39,14.57l-0.15,1.51C521.65,1405.9,542.96,1406.87,561.84,1406.87z"/></g></g><g><g><g><g><g><g><g><g><g><g><polygon class="st3" points="380.54,1577.33 324.68,1578.09 323.88,1525.41 379.52,1518.46 "/></g></g></g></g></g></g></g></g></g><g><g><g><g><g><g><path class="st1" d="M437.94,1586.81H323.88v-22.95c0,0,8.3-11.02,20.93-5.39c0,0,18.7,13.54,35.55-2.64l42.23,18.13C422.59,1573.96,437.94,1579.01,437.94,1586.81z"/></g></g></g></g></g><g><g><g><g><g><path class="st18" d="M323.88,1594.84h117.03c1.1,0,1.99-0.89,1.99-1.99v-4.05c0-1.1-0.89-1.99-1.99-1.99H323.88V1594.84z"/></g></g></g></g></g><g><g><g><g><g><path class="st5" d="M392.86,1561.19c-3.83,5.97-11.51,17.98-16.4,25.62h-7.78c4.37-6.82,13.52-21.13,18.07-28.24L392.86,1561.19z"/></g></g></g></g></g><g><g><g><g><g><path class="st5" d="M388.93,1586.81h-7.78c3.55-5.55,10.48-16.38,15.39-24.04l6.1,2.62C398.51,1571.83,392.8,1580.75,388.93,1586.81z"/></g></g></g></g></g></g><g><g><g><g><g><g><g><g><g><polygon class="st3" points="284.36,1577.33 228.5,1578.09 227.7,1525.41 283.34,1518.46 "/></g></g></g></g></g></g></g></g></g><g><g><g><g><g><g><g><path class="st21" d="M290.31,1121.26c1.85,54.41,9.9,267.24,26.81,406.49c1.11,9.18,8.89,16.1,18.14,16.08c10.24-0.03,24.47-1.25,40.25-6.06c7.63-2.33,12.92-9.26,13.05-17.23l6.88-423.69c0.02-1.03-0.05-2.06-0.21-3.08l-0.32-2.09c-1.77-11.53-13.75-18.48-24.64-14.3l-68.23,26.21C294.75,1106.38,290.05,1113.47,290.31,1121.26z"/></g></g></g></g></g></g></g><g><g><g><g><g><g><g><path class="st20" d="M215.28,1110.29c0,0-4.64,261.71,7.47,423.14c0.57,7.64,6.64,13.68,14.28,14.26c10.81,0.82,27.29,0.7,45.85-4.23c6.3-1.67,10.88-7.11,11.44-13.6l32.39-375.32l19.94-104.21L215.28,1110.29z"/></g></g></g></g></g></g></g><g><g><g><g><g><g><g><path class="st8" d="M223.72,1545.86L223.72,1545.86L223.72,1545.86z"/></g></g></g></g></g></g></g><g><g><g><g><g><path class="st5" d="M245.28,1548.06c-2.16-48.43,7.23-351.15,7.33-354.23l-9.86-0.31c-0.39,12.63-9.51,306.18-7.28,353.98c0.51,0.09,1.02,0.16,1.55,0.2C239.49,1547.88,242.27,1548.01,245.28,1548.06z"/></g></g></g></g></g><g><g><g><g><g><path class="st5" d="M340.02,1543.73c-1.58-58.73,7.37-347.37,7.46-350.38l-9.86-0.31c-0.38,12.33-9.08,292.14-7.42,350.08c1.61,0.46,3.3,0.71,5.05,0.7C336.76,1543.82,338.36,1543.79,340.02,1543.73z"/></g></g></g></g></g><g><g><g><g><g><path class="st2" d="M194.44,1027c1.14,10.45,7.4,165.56,24.8,178.35c17.4,12.8,183.91,0.5,187.79-14.62c3.88-15.12-18.72-177.21-18.72-177.21L194.44,1027z"/></g></g></g></g></g><g><g><g><g><g><g><g><g><path class="st2" d="M382.46,953.92c2.25,0.04,91.3,41.99,91.3,41.99l-19.4,34.23l-50.34-12.86L382.46,953.92z"/></g></g></g></g></g></g></g></g><g><g><g><g><g><g><path class="st2" d="M257.04,787.49c0,0-38.38-2.65-57.08,7.11c-27.9,14.58-21.18,103.73-21.18,103.73s23.7-11.9,25.25-16.08C205.58,878.07,257.04,787.49,257.04,787.49z"/></g></g></g></g></g></g><g><g><g><g><g><g><path class="st2" d="M219.6,793.16c21.94-2.28,79.64-2.4,79.64-2.4s7.57,2.26,5.17,1.05c63.26,13.41,68.68,60.84,68.68,60.84l26.42,137.42l34.51,3.05c10.47,21.58,0.3,78.48,0.3,78.48l-168.08,13.16c0,0-36.4,4.73-65.67-35.57c-19.36-26.66-23.54-106.63-21.54-164.89C179.03,884.3,185.5,796.7,219.6,793.16z"/></g></g></g></g></g></g><g><g><g><g><g><g><g><g><path class="st8" d="M269.31,987.99c0.19,0.08,0.4,0.1,0.61,0.06c0.57-0.11,0.94-0.67,0.83-1.24c-0.15-0.75-15.11-75.74-20.96-122.8c-0.07-0.58-0.6-0.99-1.18-0.92c-0.58,0.07-0.99,0.6-0.92,1.18c5.86,47.14,20.84,122.2,20.99,122.96C268.75,987.58,269,987.86,269.31,987.99z"/></g></g></g></g></g></g></g></g><g><g><g><g><g><g><g><g><path class="st8" d="M373.04,989.76c-0.17,0.15-0.39,0.25-0.64,0.26c-0.58,0.03-1.08-0.41-1.12-1c-0.05-0.87-5.04-87.15-10.09-115.71c-0.1-0.58,0.28-1.12,0.86-1.23c0.58-0.1,1.12,0.28,1.23,0.86c5.07,28.69,10.07,115.09,10.12,115.96C373.42,989.24,373.28,989.55,373.04,989.76z"/></g></g></g></g></g></g></g></g><g><g><g><g><g><g><g><g><path class="st8" d="M385.76,971.05c0.47,0.2,1.02,0.03,1.3-0.41l7.51-11.92l-0.08-0.41l-20.34-105.82c-0.12-0.95-1.77-13.26-11.69-27.11c-9.29-12.98-27.92-29.72-63.89-35.76c-0.58-0.1-1.12,0.29-1.22,0.87c-0.1,0.58,0.29,1.12,0.87,1.22c35.19,5.91,53.39,22.19,62.46,34.81c9.82,13.68,11.36,26.13,11.38,26.25l0.01,0.08l20.27,105.45l-7.07,11.21c-0.31,0.49-0.16,1.15,0.33,1.46C385.65,971,385.7,971.03,385.76,971.05z"/></g></g></g></g></g></g></g></g><g><g><g><g><g><g><g><g><path class="st8" d="M241.14,979.97c0.04,0.02,0.09,0.03,0.14,0.05l28.05,7.43c0.56,0.15,1.14-0.19,1.29-0.75c0.15-0.56-0.19-1.14-0.75-1.29l-28.05-7.43c-0.56-0.15-1.14,0.19-1.29,0.75C240.39,979.24,240.66,979.77,241.14,979.97z"/></g></g></g></g></g></g></g></g><g><g><g><g><g><g><g><g><path class="st8" d="M423.18,972.71c0.53,0.22,1.14-0.02,1.38-0.55c0.23-0.54-0.01-1.16-0.54-1.39l-30.14-13.23c-0.56-0.21-1.16,0.01-1.39,0.54c-0.23,0.53,0.01,1.16,0.54,1.39l30.14,13.23C423.17,972.71,423.18,972.71,423.18,972.71z"/></g></g></g></g></g></g></g></g><g><g><g><g><path class="st8" d="M258.19,687.25c0,0-15.27,7.88-7.64,38.7l5.78-2.98l-1.95-16.37L258.19,687.25z"/></g></g></g></g><g><g><g><g><g><g><g><path class="st3" d="M311.71,706.37v45.16c0,0,0.63,15.27-12.64,17.17l2.48,20.37c0.92,7.57-3.58,14.82-10.8,17.12c-3.53,1.13-7.75,1.95-12.53,1.95c-15.17,0-23.39-11.45-24.65-17.17c-1.26-5.72,2.53-33.08,2.53-33.08l-0.46-13.44l1.73-52.08L311.71,706.37z"/></g></g></g></g></g></g></g><g><g><g><g><g><g><g><path class="st8" d="M275.08,728.95c-0.16,0-0.32-0.06-0.44-0.18c-0.25-0.24-0.26-0.65-0.02-0.9c0.09-0.09,8.78-9.04,16.73-2.6c0.27,0.22,0.31,0.62,0.1,0.89c-0.22,0.27-0.62,0.32-0.89,0.1c-7.04-5.71-14.7,2.15-15.02,2.49C275.41,728.88,275.25,728.95,275.08,728.95z"/></g></g></g></g></g></g></g><g><g><g><g><g><g><g><path class="st8" d="M301.14,725.13c-0.18,0-0.35-0.07-0.48-0.22c-0.23-0.27-0.2-0.67,0.06-0.9c0.25-0.22,6.28-5.41,10.1-2.12c0.27,0.23,0.3,0.63,0.07,0.9c-0.23,0.27-0.63,0.3-0.89,0.07c-2.99-2.58-8.39,2.07-8.45,2.12C301.43,725.08,301.28,725.13,301.14,725.13z"/></g></g></g></g></g></g></g><g><g><g><g><g><g><g><path d="M287.86,731.52c0,1.05-0.85,1.91-1.9,1.91c-1.05,0-1.9-0.85-1.9-1.91s0.85-1.91,1.9-1.91C287.01,729.61,287.86,730.47,287.86,731.52z"/></g></g></g></g></g></g></g><g><g><g><g><g><g><g><path d="M308.02,729.61c0,1.05-0.85,1.91-1.9,1.91c-1.05,0-1.9-0.85-1.9-1.91c0-1.05,0.85-1.91,1.9-1.91C307.17,727.7,308.02,728.56,308.02,729.61z"/></g></g></g></g></g></g></g><g><g><g><g><g><g><g><ellipse class="st3" cx="254.36" cy="732.18" rx="11.38" ry="11.45"/></g></g></g></g></g></g></g><g><g><g><g><g><g><g><path class="st4" d="M253.52,739.2c-2.36,0-3.94-1.79-4.46-3.57c-0.61-2.11,0.09-4.17,1.8-5.23c2.52-1.57,4.8-0.56,5.97,0.21c-0.49-1.3-1.26-2.25-2.3-2.82c-2.24-1.24-5.02-0.34-5.05-0.33c-0.17,0.06-0.34-0.03-0.4-0.2c-0.05-0.17,0.03-0.35,0.2-0.4c0.12-0.04,3.06-1,5.55,0.37c1.44,0.79,2.41,2.2,2.9,4.17l0.28,1.11l-0.8-0.81c-0.11-0.11-2.82-2.76-6.02-0.77c-1.77,1.11-1.93,3.12-1.52,4.51c0.42,1.44,1.68,3.12,3.85,3.12c0.02,0,0.04,0,0.07,0c0.17,0,0.31,0.14,0.32,0.31c0,0.18-0.14,0.32-0.31,0.32C253.57,739.2,253.54,739.2,253.52,739.2z"/></g></g></g></g></g></g></g><g><g><g><g><g><g><path class="st8" d="M313.91,744.34c0,0,4.13,30.58-16.05,31.67c-28.88,1.55-31.67-15.03-33.39-28.6l-0.29-28.01l0.93-8.13l0,0c2.04,2.32,3.29,5.24,3.56,8.33c0.6,6.72,2.08,24.81,3.74,25.61C274.77,746.35,309.41,741.4,313.91,744.34z"/></g></g></g></g></g></g><g><g><g><g><g><g><g><path class="st4" d="M294.55,744.39c-0.13,0-0.26-0.08-0.3-0.22c-0.05-0.17,0.04-0.35,0.2-0.4l6.34-2.11l-2-15c-0.02-0.17,0.1-0.33,0.27-0.36c0.17-0.03,0.33,0.1,0.36,0.27l2.07,15.53l-6.83,2.27C294.62,744.39,294.58,744.39,294.55,744.39z"/></g></g></g></g></g></g></g><g><g><g><g><g><g><g><path class="st9" d="M289.64,750.59c0.19-0.04,12.52-0.33,12.52-0.33s-1.55,5.13-6.13,5.25C291.46,755.63,289.64,750.59,289.64,750.59z"/></g></g></g></g></g></g></g><g><g><g><g><path class="st8" d="M265.05,711.8l-5.71-5.2l-5.91,14.21c0,0,7.31,1.21,7.43,8.81c0.13,7.6-3.97,19.46,9.19,36.51c13.16,17.05-1.06-25.45-1.19-26.93C268.73,737.72,265.05,711.8,265.05,711.8z"/></g></g></g></g><g><g><g><g><path class="st8" d="M258.19,687.25c6.09-6.05,27.23-9.5,42.31-0.41l0-0.02c17.17,8.4,11.78,25.5,11.21,26.01l-0.22-0.17c0.09,0.39,0.17,0.79,0.22,1.19c0,0-0.72-1.15-2.26-2.75l-6.75-5.17c-3.78-2.13-8.86-3.97-15.43-4.4c-6.52-0.43-12.21-0.06-16.89,1.37c-1.24,3.88-2.24,11.57-0.79,26.71c2.21,23.09-7.87-4.92-11.54-15.65c-0.79,2.01-1.36,4.26-1.65,6.84C256.4,720.8,245.98,699.36,258.19,687.25z"/></g></g></g></g><g><g><g><g><path class="st3" d="M311.71,719.05c0,0,0.45-9.27,0-11.3c-0.45-2.03-21.08-7.86-32.38-6.31c-11.3,1.55,10.6,13.99,10.86,13.99S311.71,719.05,311.71,719.05z"/></g></g></g></g><g><g><g><g><polygon class="st3" points="272.54,703.82 261.62,693.66 271.91,708.51 "/></g></g></g></g><g><g><g><g><g><path class="st2" d="M229.2,832.07l20.47-34.33l35.98,10.87l14.59-15.52c0,0,3.1,14.34,3.01,15.52c-0.09,1.19-16.44,18.17-18.54,17.99C282.61,826.41,229.2,832.07,229.2,832.07z"/></g></g></g></g></g><g><g><g><g><g><path class="st8" d="M232.11,1210.24c0.64,0,1.18-0.5,1.23-1.15c0.05-0.68-0.46-1.27-1.14-1.32c-17.27-1.23-19.64-15.92-23.57-40.25c-0.71-4.37-1.44-8.9-2.32-13.76c-5.85-32.32-8.42-110.61-8.45-111.4c-0.02-0.67-0.57-1.19-1.23-1.19c-0.01,0-0.03,0-0.04,0c-0.68,0.02-1.21,0.59-1.19,1.27c0.03,0.79,2.61,79.27,8.49,111.76c0.88,4.84,1.61,9.35,2.31,13.71c3.98,24.66,6.61,40.95,25.83,42.32C232.05,1210.24,232.08,1210.24,232.11,1210.24z"/></g></g></g></g></g><g><g><g><g><g><path class="st1" d="M298.09,776.91l1.47,12.88c0,0-8.9,13.36-15,17.63c-12.08-8.38-31.37-20.26-31.37-20.26l1.53-14.74c-22.43-2.56-47.81,11.07-41.97,18.33c5.84,7.26,36.22,9.49,44.28,12.14c7.95,2.61,28.27,8.78,28.27,8.78c5.34-3.97,19.69-20.82,19.69-20.82l14.52,4.03C319.79,780.14,298.09,776.91,298.09,776.91z"/></g></g></g></g></g><g><g><g><g><g><g><path class="st2" d="M341.76,1586.81H227.7v-22.95c0,0,8.3-11.02,20.93-5.39c0,0,18.7,13.54,35.55-2.64l42.23,18.13C326.4,1573.96,341.76,1579.01,341.76,1586.81z"/></g></g></g></g></g><g><g><g><g><g><path class="st18" d="M227.7,1594.84h117.03c1.1,0,1.99-0.89,1.99-1.99v-4.05c0-1.1-0.89-1.99-1.99-1.99H227.7V1594.84z"/></g></g></g></g></g><g><g><g><g><g><path class="st5" d="M296.67,1561.19c-3.83,5.97-11.51,17.98-16.4,25.62h-7.78c4.37-6.82,13.52-21.13,18.07-28.24L296.67,1561.19z"/></g></g></g></g></g><g><g><g><g><g><path class="st5" d="M292.74,1586.81h-7.78c3.55-5.55,10.48-16.38,15.39-24.04l6.1,2.62C302.33,1571.83,296.62,1580.75,292.74,1586.81z"/></g></g></g></g></g></g><g><g><g><path d="M285.31,812.49c0.21,0,0.43-0.08,0.59-0.25l25.34-25.74c0.32-0.32,0.31-0.84-0.01-1.16c-0.32-0.32-0.84-0.32-1.16,0.01l-25.34,25.74c-0.32,0.32-0.31,0.84,0.01,1.16C284.89,812.41,285.1,812.49,285.31,812.49z"/></g></g></g><g><g><polygon class="st16" points="447.14,993.3 446.16,1002.82 462.49,997.47 "/></g></g><g><g><path class="st16" d="M451.05,991.08l-2.22,1.76l-1.7,0.46l1.96,2.73l9.4,0.69c0,0,2.17-4.71,2.13-4.83c-0.05-0.12-6.51-3.72-6.51-3.72L451.05,991.08z"/></g></g><g><g><g><polygon class="st12" points="539.72,1108.18 430.55,1087.36 449.93,985.79 462.94,917.57 572.11,938.4 "/></g></g><g><g><rect x="497.34" y="926.08" transform="matrix(0.9823 0.1874 -0.1874 0.9823 198.5642 -75.6342)" class="st18" width="4.02" height="172.85"/></g></g><g><g><rect x="499.32" y="957.31" transform="matrix(-0.1874 0.9823 -0.9823 -0.1874 1590.2067 710.2232)" class="st18" width="4.02" height="111.14"/></g></g><g><g><path class="st18" d="M501.01,1014.44l-0.65-1.58l-2.79-1.02c0.3-0.82,7.47-20.17,17.39-23.57c2.84-0.97,5.62-0.62,8.26,1.03c3.14,1.97,3.63,4.31,3.5,5.93C525.99,1003.67,505.17,1012.71,501.01,1014.44z M519.01,991.66c-0.92-0.18-1.86-0.1-2.82,0.23c-5.55,1.9-10.8,11.44-13.57,17.68c9.07-4.13,19.93-10.62,20.27-14.65c0.03-0.34,0.1-1.23-1.72-2.37C520.45,992.09,519.73,991.8,519.01,991.66z"/></g></g><g><g><path class="st18" d="M497.11,1013.7c-3.24-3.14-19.26-19.22-16.82-27.32c0.47-1.56,1.79-3.55,5.43-4.23c3.06-0.57,5.77,0.13,8.05,2.08c7.96,6.81,7.51,27.44,7.49,28.32l-2.97-0.08L497.11,1013.7z M488.75,985.89c-0.72-0.14-1.5-0.13-2.33,0.03c-2.11,0.39-2.37,1.25-2.47,1.57c-1.17,3.88,6.54,13.9,13.45,21.08c-0.28-6.82-1.65-17.62-6.11-21.43C490.52,986.48,489.68,986.06,488.75,985.89z"/></g></g><g><g><path class="st18" d="M469.09,1043.18l-2.36-3.01c2.42-1.9,3.22-5.43,3.78-8.59l0.06-0.36c0.64-3.64,1.38-7.76,4.18-10.76c2.58-2.75,6.08-3.77,9.47-4.76c0.61-0.18,1.21-0.35,1.81-0.54c3.98-1.25,7.74-3.08,11.16-5.46l2.18,3.14c-3.74,2.6-7.85,4.61-12.2,5.97c-0.62,0.19-1.25,0.38-1.88,0.56c-3.03,0.88-5.89,1.72-7.75,3.7c-2.03,2.17-2.63,5.55-3.21,8.82l-0.06,0.36C473.54,1036.39,472.4,1040.57,469.09,1043.18z"/></g></g><g><g><path class="st18" d="M509.73,1059.73c-2.83-4.58-5.18-9.48-6.96-14.56c-0.44-1.25-0.87-2.6-0.86-4.09c0.01-1.66,0.56-3.16,1.06-4.48c0.24-0.66,0.47-1.27,0.63-1.88c0.93-3.6-0.55-7.58-2.01-11.02l-0.29-0.68c-1.66-3.89-3.38-7.92-3-12.36l3.81,0.32c-0.3,3.49,1.23,7.07,2.71,10.53l0.29,0.68c1.83,4.32,3.37,8.93,2.19,13.47c-0.21,0.79-0.48,1.53-0.75,2.25c-0.42,1.12-0.81,2.18-0.82,3.16c0,0.88,0.31,1.83,0.65,2.81c1.69,4.82,3.92,9.47,6.61,13.82L509.73,1059.73z"/></g></g></g><g><g><g><g><g><g><g><g><g><g><g><g><path class="st3" d="M500.08,1042.23c0.1-2.73-2.25-5.11-4.97-5.29l-16.84-1.13c-0.53-0.04-0.98-0.4-1.11-0.92l0,0c-0.2-0.76,0.34-1.51,1.12-1.56l24.93-1.65c2.86-0.19,4.59-2.61,3.84-5.37l0,0c-0.74-2.76-3.69-4.87-6.54-4.68l-25.42,1.68c-0.59,0.04-1.13-0.34-1.28-0.92l-0.11-0.4c-0.18-0.66,0.21-1.34,0.88-1.52l27.26-7.32c2.63-0.71,4.48-3.5,3.85-6.16c-0.67-2.81-3.52-4.5-6.29-3.76l-27.46,7.38c-0.66,0.18-1.34-0.21-1.52-0.88l-0.34-1.28c-0.16-0.6,0.15-1.23,0.72-1.47l24.37-10.1c2.52-1.04,3.99-4.06,3.02-6.61c-1.03-2.7-4.07-4.01-6.73-2.91c0,0-37.49,13.27-43.6,14.88L459.1,997c8.3,7.78-1.07-2.84-7.9-4.21c-7.56-1.52-27.54,16.98-27.54,16.98c-0.92,1.59,0.03,5.15,1.47,7.83c5.57,29.61,6.68,34.12,8.92,41.96l30.8-9.4c8.89-2.71,18.19-3.78,27.46-3.16l2.33,0.16C497.5,1047.33,499.97,1045.12,500.08,1042.23z"/></g></g></g></g></g></g></g></g></g></g></g></g><g><g><g><g><g><g><path class="st2" d="M434.03,993.12c0,0,10.16,26.45,0.3,78.48l-26.84,2.1l0.51-63.82L434.03,993.12z"/></g></g></g></g></g></g><g><g><g><g><g><g><g><g><path class="st8" d="M232.76,987.68c0.12,0.05,0.26,0.08,0.4,0.08c1.51,0.01,151.27,0.62,200.08,6.32c1.09,3.25,6.05,20.04,3.47,50.37c-0.05,0.58,0.38,1.1,0.96,1.14c0.58,0.05,1.09-0.38,1.14-0.96c2.92-34.36-3.54-51.21-3.82-51.91l-0.23-0.59l-0.63-0.08c-48.24-5.79-199.46-6.41-200.98-6.42c-0.58,0-1.06,0.47-1.06,1.05C232.11,987.15,232.38,987.52,232.76,987.68z"/></g></g></g></g></g></g></g></g><g><g><g><g><g><path class="st8" d="M293.84,1081.2c61.15,0,136.01-7.89,140.62-8.38c0.68-0.07,1.17-0.68,1.09-1.36c-0.07-0.68-0.65-1.17-1.36-1.09c-1.67,0.18-167.32,17.64-208.93,1.33c-41.12-16.12-43.99-106.72-44.02-107.64c-0.02-0.68-0.59-1.23-1.26-1.2c-0.68,0.02-1.22,0.58-1.2,1.26c0.1,3.8,2.94,93.15,45.58,109.87C238.08,1079.37,264.36,1081.2,293.84,1081.2z"/></g></g></g></g></g><g><polygon class="st12" points="447.83,1002.26 448.56,992.9 450.52,982.67 464.71,986.99 463.93,996.98 "/></g></g><g><g><g><g><g><g><path class="st24" d="M461.33,1096.54c-10.68-6.64-1.16-9.65-1.16-9.65c-5.37-4.15-4.7-6.62-3.2-7.96c1.09-0.98,2.61-1.32,4.05-1.02c4.56,0.94,18.46,3.87,27.05,6.22c5.6-1.35,2.19-10.6-1.17-15.07c-1.73-2.3-2.52-6.45,4.34-3.29c5.6,2.59,15.04,12.61,15.04,12.61l31.07-8.33l2.6,44.31c0,0-36.13,5.54-41.57,6.42c-5.44,0.87-24.67-2.27-30.96-6.13c-11.43-7.01-5.23-8.5-5.23-8.5C450.99,1097.74,461.33,1096.54,461.33,1096.54z"/></g></g></g></g></g></g><g><g><g><g><path class="st25" d="M472.38,1092.03c0.07-0.08,0.13-0.18,0.16-0.29c0.11-0.38-0.12-0.78-0.5-0.88c-4.8-1.32-11.77-4.89-12.07-5.04c-0.35-0.18-0.79-0.04-0.97,0.31c-0.18,0.35-0.04,0.79,0.31,0.97c0.3,0.15,7.4,3.79,12.34,5.15C471.93,1092.32,472.21,1092.22,472.38,1092.03z"/></g></g></g><g><g><g><path class="st25" d="M473.16,1101.49c0.08-0.09,0.15-0.21,0.17-0.34c0.08-0.39-0.17-0.77-0.56-0.85c-5.84-1.19-11.04-4.27-11.26-4.39l-0.74,1.23c0.57,0.34,5.74,3.35,11.71,4.57C472.74,1101.76,473,1101.67,473.16,1101.49z"/></g></g></g><g><g><g><path class="st25" d="M473.38,1110.58c0.09-0.1,0.15-0.22,0.18-0.36c0.07-0.39-0.2-0.76-0.59-0.83c-5.48-0.93-10.42-3.8-10.47-3.83c-0.34-0.2-0.8-0.09-0.98,0.26c-0.2,0.34-0.09,0.78,0.26,0.98c0.05,0.03,5.22,3.03,10.96,4C472.98,1110.85,473.22,1110.75,473.38,1110.58z"/></g></g></g></g><g><g><path class="st24" d="M506.27,1078.37l89.84-30.88l16.5-49.67c13.45,8.3,36.45,20.34,61.25,23.95c-6.88,21.98-23.75,71.2-40.23,83.18c-21.39,15.55-137.04,15.95-137.04,15.95L506.27,1078.37z"/></g></g><g><path d="M441.89,956.61c-0.45-0.26-11.03-6.63-11.11-25.14c-0.08-18.58,10.07-38.49,13.19-44.15c0.29-0.52,0.5-0.9,0.62-1.11l2.26-24.04c0.19-0.64,4.8-15.72,22.27-21.55l0.63,1.9c-15.8,5.27-20.57,18.93-20.96,20.13l-2.26,24.19l-0.11,0.19c0,0.01-0.26,0.45-0.71,1.25c-3.06,5.55-13.02,25.08-12.94,43.18c0.08,17.29,10.02,23.36,10.12,23.42L441.89,956.61z"/></g></g><g><g><g><path class="st26" d="M286.25,581.37c-9.46-3.41-12.18,6.78-12.7,9.33c-1.8-1.87-9.56-9.03-15.72-1.08c-8.28,10.67,12.91,26.77,24.2,30.32l0.01,0C289.67,610.89,298.96,585.95,286.25,581.37z"/></g></g></g><g><g><g><path class="st26" d="M391.6,642.48c-6.64-11.04-17.59-3.11-20.16-1c-0.28-3.31-2.2-16.69-14.75-13.78c-16.86,3.91-8.81,37.03-0.46,49.69l0.01,0C371.14,674.57,400.53,657.3,391.6,642.48z"/></g></g></g><g><g><path class="st27" d="M998.76,279.91c-35.66-2.04-119.26-5.61-191.93,0.52c-30.07,2.54-56.03-21.48-55.35-51.65c0.28-12.35,4.71-26.71,16.16-42.99c44.13-62.67,120.83-2.82,120.09,28.99c0,0,15.51-47.9,62.6-39.51c47.1,8.39,30.44,78.05,30.44,78.05s15.2-3.21,25.73,3.98C1016.86,264.38,1011.28,280.63,998.76,279.91z"/></g></g><g><g><path class="st27" d="M269.77,482.17c28.84-1.52,127.67-5.69,195.26,4.33c8.77,1.3,14.35-9.21,8.29-15.67c-3.55-3.78-9.6-6.86-19.77-7.57c0,0,3.5-63.09-44.15-67.27c-54.66-4.79-55.32,57.19-55.32,57.19s-24.84-23.58-42.76,6.32c0,0-30.97-17.9-46.59,15.16C263.01,478.26,265.79,482.38,269.77,482.17z"/></g></g></svg>